<?xml version="1.0" encoding="utf-8"?>
<!-- Generator: Adobe Illustrator 18.1.1, SVG Export Plug-In . SVG Version: 6.00 Build 0)  -->
<svg version="1.1" id="Layer_1" xmlns="http://www.w3.org/2000/svg" xmlns:xlink="http://www.w3.org/1999/xlink" x="0px" y="0px"
	 viewBox="0 0 134.6 144.5" enable-background="new 0 0 134.6 144.5" xml:space="preserve">
<g>
	<path fill="none" d="M0,146.1c0-9.5,0-19,0-28.5c0-9.5,0-19,0-28.5c0-9.5,0-19,0-28.5C0,51,0,41.5,0,32c0-9.5,0-19,0-28.5
		c0-0.6,0-1.2,0-1.8c0-0.3,0-0.5,0-0.8c0-0.2,0-0.3,0-0.5C0,0,0,0.1,0.2,0C0.4,0,0.8,0,1.1,0c0.2,0,0.5,0,0.7,0c0.6,0,1.1,0,1.7,0
		C5.8,0,8,0,10.2,0c4.4,0,8.9,0,13.3,0c8.9,0,17.7,0,26.6,0s17.7,0,26.6,0s17.7,0,26.6,0c8.9,0,17.7,0,26.6,0c2.2,0,4.3,0,6.5,0
		c0,9.5,0,19,0,28.5s0,19,0,28.5s0,19,0,28.5s0,19,0,28.5s0,19,0,28.5c0,0.6,0,1.2,0,1.8c0,0.3,0,0.5,0,0.8c0,0.2,0,0.3,0,0.5
		c0,0.4,0,0.3-0.2,0.3c-0.2,0.1-0.6,0-0.9,0c-0.2,0-0.5,0-0.7,0c-0.6,0-1.1,0-1.7,0c-2.2,0-4.5,0-6.7,0c-4.4,0-8.9,0-13.3,0
		c-8.9,0-17.7,0-26.6,0c-8.9,0-17.7,0-26.6,0s-17.7,0-26.6,0s-17.7,0-26.6,0C4.3,146.1,2.2,146.1,0,146.1C0,97.4,45.5,146.1,0,146.1
		z M133.5,66c-2.8-1.7-5.6-3.3-8.4-5.1c-1.2-0.8-2.3-1.5-3.7-1.5c-1.5,0-2.9,0.7-4.2,1.2c-5.7,2.2-11.3,4.6-16.8,7.1
		c-11.1,5.1-21.8,11.1-32.2,17.7c-5.8,3.7-11.6,7.6-17,12c2.7,2,5.5,3.9,8.2,5.9c1.3,0.9,2.6,1.9,3.9,2.9c1,0.8,2.2,1.9,3.5,1.8
		c1.4-0.2,2.6-1.6,3.6-2.4c1.2-1,2.5-2.1,3.8-3.1c2.5-2,5-3.9,7.5-5.8c10.2-7.6,20.9-14.4,32-20.4C120.2,72.8,126.9,69.5,133.5,66
		C130.3,64.1,125.5,70.2,133.5,66z M117.4,56.5c-3-1.5-6-2.9-9-4.4c-0.7-0.3-1.4-0.7-2.1-1c-0.6-0.3-1.3-0.7-2-0.8
		c-0.7,0-1.3,0.2-2,0.4c-0.8,0.2-1.6,0.5-2.4,0.7c-6,1.8-11.9,3.8-17.7,6.1c-11.6,4.5-22.8,10-33.6,16.4c-6,3.5-12.1,7.2-17.6,11.5
		c2.9,1.7,5.8,3.3,8.7,5c1.4,0.8,2.7,1.8,4.2,2.5c1.3,0.6,2.5,0.4,3.7-0.4c2.6-1.8,5.2-3.7,7.8-5.5c2.6-1.8,5.3-3.5,8-5.2
		c10.8-6.7,22-12.5,33.6-17.4C103.6,61.6,110.5,59.1,117.4,56.5C112.9,54.3,110,59.3,117.4,56.5z M18.6,73.1
		c2.8,1.5,5.7,2.9,8.5,4.5c1.4,0.8,2.5,1.2,4.1,0.6c1.6-0.7,3.1-1.7,4.6-2.6c6.2-3.5,12.5-7,18.8-10.4c3.2-1.7,6.5-3.2,9.7-4.7
		c-2.8-1.3-5.6-2.8-8.6-3.9c-1.3-0.5-2.8-0.8-4.2-0.3c-1.5,0.5-3,1.4-4.5,2.1c-6.2,2.9-12.5,5.8-18.5,9.1
		C25.2,69.3,21.9,71.2,18.6,73.1C22,74.9,23.2,70.5,18.6,73.1z M3.2,65.7c0.1,0.2,0.1,0.4,0.2,0.5c0.1,0.3,0.1,0.3,0.3,0.4
		c0.3,0.2,0.8,0.3,1.1,0.5c0.8,0.3,1.5,0.6,2.3,0.9c1.5,0.6,2.9,1.4,4.3,1.9c1.4,0.5,2.7,0.2,4-0.5c1.5-0.8,3-1.5,4.5-2.3
		c5.9-3,11.8-6,17.7-8.9c3.3-1.6,6.5-3.3,9.8-4.9c-2.3-1.2-4.6-2.5-7.2-2.9c-2.2-0.3-4.3,0.4-6.4,1.2c-3.2,1.2-6.4,2.5-9.5,4
		c-3.3,1.6-6.7,3.2-10,4.8C10.7,62.2,7,64,3.2,65.7C3.3,66,11.1,62,3.2,65.7z M38.9,45.2c5.4,2.3,10.7,4.7,16.1,7
		c2.6,1.1,5.3,2.3,7.9,3.4c1.3,0.6,2.6,1.1,3.9,1.7c1.1,0.5,2.3,1.2,3.6,0.8c2.9-1,5.8-2.2,8.6-3.3c-0.4-0.3-0.7-0.7-1.1-0.9
		c-0.7-0.4-1.5-0.6-2.2-0.9c-1.3-0.6-2.6-1.1-3.9-1.7c-2.7-1.1-5.4-2.3-8.1-3.4c-2.6-1.1-5.3-2.2-7.9-3.3c-1.4-0.6-2.8-1.1-4.2-1.7
		c-1.2-0.5-2.3-1-3.6-0.7c-1.5,0.3-3.1,0.9-4.5,1.4C41.9,44.2,40.4,44.7,38.9,45.2C48.9,49.6,41.8,44.3,38.9,45.2z M55.5,40.1
		c5.5,2.3,10.9,4.5,16.4,6.8c2.7,1.1,5.5,2.3,8.2,3.5c2.3,1,4.6,1.6,7,1.5c2.9-0.2,5.6-1.2,8.1-2.9c-5.3-2-10.7-3.9-16-5.9
		c-2.5-1-5.1-2-7.6-3c-2.5-1.1-5.1-1.8-7.8-1.7C61,38.4,58.2,39.1,55.5,40.1C64,43.6,60.4,38.2,55.5,40.1z M77.3,109.8
		c1-1.2,1.9-2.4,2.9-3.6c-0.7-0.6-1.3-1.6-2.3-1.8c-0.7-0.2-1.5,0.1-1.9,0.8C75,106.9,76.5,108.5,77.3,109.8
		C78.6,108.2,76.4,108.3,77.3,109.8z"/>
	<path fill="#E31932" d="M133.5,66c-11.5,6-23.1,11.8-34.2,18.8c-5.4,3.4-10.6,6.9-15.8,10.7c-2.5,1.9-5.1,3.8-7.5,5.7
		c-2.5,2-4.9,4-7.4,6c-0.6,0.5-1.3,0.9-2,0.9c-0.7,0-1.3-0.3-1.8-0.7c-1.5-1-2.8-2.1-4.3-3.2c-3.1-2.2-6.1-4.4-9.2-6.6
		c4.8-4,10-7.5,15.1-10.9c5.1-3.4,10.3-6.5,15.7-9.5c10.7-6,21.8-11.3,33.1-15.7c1.5-0.6,3.1-1.3,4.7-1.8c1.5-0.4,3-0.2,4.4,0.7
		C127.3,62.3,130.4,64.1,133.5,66C125.5,70.2,130.3,64.1,133.5,66z"/>
	<path fill="#E31932" d="M117.4,56.5c-6.2,2.4-12.4,4.7-18.5,7.2c-5.8,2.4-11.6,5-17.3,7.9c-11.3,5.7-22.1,12.3-32.5,19.7
		c-1.2,0.9-2.6,2.3-4.2,2.1c-0.7-0.1-1.4-0.5-2.1-0.9c-0.8-0.5-1.6-1-2.4-1.4c-3.2-1.9-6.4-3.7-9.6-5.5c5-3.9,10.4-7.2,15.8-10.4
		c5.4-3.2,10.9-6.2,16.5-9c11.2-5.6,22.8-10.3,34.7-14c1.6-0.5,3.3-1,4.9-1.5c0.8-0.2,1.5-0.4,2.3-0.1c0.8,0.3,1.6,0.7,2.3,1.1
		C110.6,53.2,114,54.8,117.4,56.5C110,59.3,112.9,54.3,117.4,56.5z"/>
	<path fill="#2B59A8" d="M18.6,73.1c3-1.7,5.9-3.4,8.9-5.1c2.9-1.6,5.9-3.1,8.9-4.6c3.2-1.6,6.3-3.1,9.5-4.6
		c1.5-0.7,3.1-1.4,4.6-2.1c1.4-0.6,2.7-0.9,4.3-0.5c1.6,0.4,3.1,1.2,4.5,1.9c1.7,0.8,3.3,1.6,5,2.4c-2.9,1.4-5.8,2.6-8.6,4.1
		c-3.1,1.7-6.2,3.4-9.3,5.1c-3.2,1.7-6.3,3.5-9.4,5.3c-1.6,0.9-3.1,1.8-4.7,2.6c-1.4,0.8-2.6,1.4-4.2,0.7c-0.8-0.4-1.5-0.9-2.3-1.3
		c-0.7-0.4-1.5-0.8-2.2-1.2C21.9,74.8,20.2,74,18.6,73.1C23.2,70.5,22,74.9,18.6,73.1z"/>
	<path fill="#2B59A8" d="M3.2,65.7c6.6-3.1,13.2-6.3,19.8-9.4c1.6-0.8,3.3-1.6,4.9-2.3c1.6-0.7,3.2-1.2,4.8-1.9
		c2.2-0.8,4.5-1.8,6.9-1.7c2.8,0.1,5.4,1.7,7.9,2.9c-5.8,3-11.7,5.9-17.6,8.8c-3,1.5-5.9,3-8.9,4.5c-1.5,0.8-3,1.5-4.5,2.3
		c-1.3,0.7-2.6,1.4-4,1.3c-0.8-0.1-1.6-0.5-2.3-0.9c-0.8-0.4-1.6-0.7-2.4-1.1c-0.8-0.3-1.7-0.7-2.5-1c-0.4-0.2-0.9-0.4-1.3-0.5
		c-0.3-0.1-0.3-0.1-0.4-0.3C3.4,66.3,3.3,66,3.2,65.7C11.1,62,3.3,66,3.2,65.7z"/>
	<path fill="#E31932" d="M38.9,45.2c2.7-0.9,5.4-1.9,8.2-2.7c1.3-0.4,2.3-0.5,3.6,0.1c1.4,0.6,2.8,1.1,4.2,1.7
		c5.3,2.2,10.7,4.4,16,6.7c1.5,0.6,3,1.3,4.5,1.9c0.7,0.3,1.4,0.6,2.2,0.9c0.6,0.3,1,0.6,1.5,1c-2.5,1-5.1,2-7.6,3
		c-0.5,0.2-1.1,0.5-1.7,0.5c-0.7,0-1.3-0.3-1.9-0.6c-1.3-0.6-2.6-1.1-3.9-1.7c-5.3-2.3-10.6-4.6-15.8-6.9
		C44.9,47.9,41.9,46.5,38.9,45.2C41.8,44.3,48.9,49.6,38.9,45.2z"/>
	<path fill="#E31932" d="M55.5,40.1c4.9-1.9,10.2-2.5,15.2-0.5c5.1,2.1,10.3,4.1,15.5,6c3,1.1,6,2.2,9,3.3
		c-4.2,2.9-9.4,3.7-14.1,1.8c-5.5-2.3-10.9-4.6-16.4-6.9C61.6,42.6,58.6,41.4,55.5,40.1C60.4,38.2,64,43.6,55.5,40.1z"/>
	<path fill="#FFFFFF" d="M77.3,109.8c-0.8-1.4-2.3-2.9-1.3-4.6c0.4-0.7,1.1-1,1.8-0.8c1,0.2,1.6,1.2,2.4,1.9
		C79.2,107.4,78.2,108.6,77.3,109.8C76.4,108.3,78.6,108.2,77.3,109.8z"/>
</g>
</svg>
