<?xml version="1.0" encoding="utf-8"?>
<!-- Generator: Adobe Illustrator 18.1.1, SVG Export Plug-In . SVG Version: 6.00 Build 0)  -->
<svg version="1.1" id="Layer_1" xmlns="http://www.w3.org/2000/svg" xmlns:xlink="http://www.w3.org/1999/xlink" x="0px" y="0px"
	 viewBox="0 0 80.5 74.1" enable-background="new 0 0 80.5 74.1" xml:space="preserve">
<g>
	<path fill="#3C0E30" stroke="#3C0E30" stroke-width="10" stroke-miterlimit="10" d="M55.5,64.7H23.6c-6.6,0-12-5.4-12-12V41.2
		c0-6.6,5.4-12,12-12h31.9c6.6,0,12,5.4,12,12v11.5C67.5,59.3,62.1,64.7,55.5,64.7z"/>
	<path fill="#FFFFFF" stroke="#3C0E30" stroke-width="10" stroke-miterlimit="10" d="M22.5,29.2c0,0-2.4-21.8,18.1-21.8
		s18.1,21.8,18.1,21.8H22.5z"/>
	<path fill="#FFFFFF" stroke="#FFFFFF" stroke-width="7" stroke-miterlimit="10" d="M30.3,55.7c-4.6,0.1-8.4-4.8-8.5-8.5
		s3.5-8.8,8.1-8.9s8.4,4.9,8.5,8.6C38.4,50.7,34.9,55.6,30.3,55.7z"/>
	<path fill="#FFFFFF" stroke="#FFFFFF" stroke-width="5" stroke-miterlimit="10" d="M28.4,46c0,0,28.9-2.8,31.7-0.5
		c1.2,1-0.2,2.4-1.1,3.2c-1.6,1.3-8,0.9-8,0.9l-3,2.1l-3.8-2.6l-1.7,1.2l-1.2-1.9l-7.4,0.1L28.4,46z"/>
	<path fill="#01A059" stroke="#01A059" stroke-width="7" stroke-miterlimit="10" d="M30.5,54.8c-3.8,0-7-4.5-7-7.9
		c-0.1-3.4,3-8.1,6.8-8.2c3.8,0,7,4.6,7,8C37.3,50.2,34.3,54.8,30.5,54.8z"/>
	<path fill="#01A059" stroke="#01A059" stroke-width="5" stroke-miterlimit="10" d="M32.1,46.3c0,0,24.1-1.7,26.5-0.3
		c1,0.6-0.2,1.5-1,2c-1.3,0.8-6.7,0.5-6.7,0.5l-2.5,1.3l-3.1-1.6L43.8,49l-1-1.2l-6.2,0.1L32.1,46.3z"/>
	<path fill="#00875B" stroke="#00875B" stroke-miterlimit="10" d="M30.4,51.7c-1.7,0-3.1-2.6-3.1-4.7s1.3-4.8,3-4.8s3.1,2.7,3.1,4.7
		C33.4,49,32,51.6,30.4,51.7z"/>
	<line fill="#3C0E30" stroke="#00875B" stroke-width="2" stroke-miterlimit="10" x1="33.7" y1="46.9" x2="56.5" y2="46.7"/>
	<line fill="none" stroke="#00875A" stroke-miterlimit="10" x1="56.2" y1="47.6" x2="40.4" y2="47.8"/>
</g>
<rect fill="none" width="88.6" height="78.2"/>
</svg>
