<?xml version="1.0" encoding="utf-8"?>
<!-- Generator: Adobe Illustrator 18.1.0, SVG Export Plug-In . SVG Version: 6.00 Build 0)  -->
<!DOCTYPE svg PUBLIC "-//W3C//DTD SVG 1.1//EN" "http://www.w3.org/Graphics/SVG/1.1/DTD/svg11.dtd">
<svg version="1.1" xmlns="http://www.w3.org/2000/svg" xmlns:xlink="http://www.w3.org/1999/xlink" x="0px" y="0px"
	 viewBox="0 0 28.3 28.3" enable-background="new 0 0 28.3 28.3" xml:space="preserve">
<g>
	<path fill="#4BC1E1" d="M26.9,8l-1.5,1.8c0.5,1.4,0.8,2.8,0.8,4.3c0,6.6-5.4,12-12,12s-12-5.4-12-12c0-6.6,5.4-12,12-12
		c1.9,0,3.8,0.5,5.5,1.4l1.4-1.7C19,0.6,16.6,0,14.1,0C6.3,0,0,6.3,0,14.1s6.3,14.1,14.1,14.1s14.1-6.3,14.1-14.1
		C28.3,12,27.8,9.9,26.9,8z"/>
	<g>
		<path fill="#00A15A" d="M27.2,2.5c0.1,1.1-0.3,2.1-1.1,3.2l-0.1,0.2l-7.5,9.7c-1.6,2.1-3,3.7-4.1,4.8c-1.1,1.1-2,1.7-2.5,1.8
			c-0.5,0.1-1.2-0.1-2.1-0.6c-0.9-0.4-1.4-0.9-1.7-1.4c-0.2-0.4-0.5-1.4-0.9-2.8c-0.3-1.4-0.6-3-0.7-4.7c-0.1-0.9,0.2-1.8,0.9-2.7
			C8,9.1,8.8,8.6,9.7,8.5c0.9-0.1,1.5,0.7,1.8,2.3c0,0.2,0.1,0.3,0.1,0.4c0.3,1.2,0.5,2.1,0.8,2.6c0.2,0.5,0.5,0.7,0.8,0.7
			c0.1,0,0.4-0.2,0.7-0.5c0.3-0.3,0.7-0.8,1.2-1.3L23,3.2c0.7-0.8,1.2-1.4,1.8-1.8c0.5-0.4,1-0.7,1.4-0.7c0.3,0,0.5,0.1,0.7,0.3
			C27,1.1,27.1,1.5,27.1,2L27.2,2.5z"/>
	</g>
</g>
</svg>
