<?xml version="1.0" encoding="utf-8"?>
<!-- Generator: Adobe Illustrator 18.1.0, SVG Export Plug-In . SVG Version: 6.00 Build 0)  -->
<!DOCTYPE svg PUBLIC "-//W3C//DTD SVG 1.1//EN" "http://www.w3.org/Graphics/SVG/1.1/DTD/svg11.dtd">
<svg version="1.1" id="cinch_logo_color" xmlns="http://www.w3.org/2000/svg" xmlns:xlink="http://www.w3.org/1999/xlink" x="0px"
	 y="0px" viewBox="0 0 509.3 247" enable-background="new 0 0 509.3 247" xml:space="preserve">
<path fill="#7D2854" d="M231.4,130.5v-0.2c0-16.2,12.6-29.9,29.8-29.9c10.7,0,17.4,4,22.8,9.9l-8.2,8.8c-4-4.2-8.2-7.1-14.7-7.1
	c-9.5,0-16.6,8.2-16.6,18.2v0.2c0,10.2,7,18.3,17.1,18.3c6.2,0,10.7-2.8,14.8-7l7.9,7.8c-5.6,6.3-12.2,10.7-23.4,10.7
	C244,160.1,231.4,146.8,231.4,130.5z"/>
<rect x="292.8" y="101.6" fill="#7D2854" width="13.1" height="57.2"/>
<path fill="#7D2854" d="M317.7,101.6h13.1v8.8c3.7-5.3,9-10,17.9-10c12.9,0,20.4,8.7,20.4,21.9v36.5h-13.1v-32.5
	c0-8.9-4.4-14-12.2-14c-7.6,0-12.9,5.3-12.9,14.2v32.3h-13.1V101.6z"/>
<path fill="#7D2854" d="M377.4,130.5v-0.2c0-16.2,12.6-29.9,29.8-29.9c10.7,0,17.4,4,22.8,9.9l-8.2,8.8c-4-4.2-8.2-7.1-14.7-7.1
	c-9.5,0-16.6,8.2-16.6,18.2v0.2c0,10.2,7,18.3,17.1,18.3c6.2,0,10.7-2.8,14.8-7l7.9,7.8c-5.6,6.3-12.2,10.7-23.4,10.7
	C389.9,160.1,377.4,146.8,377.4,130.5z"/>
<path fill="#7D2854" d="M438,79.8h13.1v30.6c3.7-5.3,9-10,17.9-10c12.9,0,20.4,8.7,20.4,21.9v36.5h-13.1v-32.5c0-8.9-4.4-14-12.2-14
	c-7.6,0-12.9,5.3-12.9,14.2v32.3H438V79.8z"/>
<path fill="#4BC1E1" d="M205,123.5c0-54.4-42.6-99.1-96.2-102.3c0-8.2,0-14.2,0-15c0-3.6-2.9-6.3-6.5-6.3c0,0,0,0,0,0
	c-3.6,0-6.5,2.7-6.5,6.2c0,0.2,0,6.4,0,15C42.4,24.7,0,69.3,0,123.5c0,54.3,42.4,98.8,95.8,102.3c0,8.6,0,14.7,0,14.9
	c0,3.6,2.9,6.2,6.5,6.2c0,0,0,0,0,0c3.6,0,6.5-2.7,6.5-6.3c0-0.8,0-6.8,0-14.9C162.4,222.6,205,177.9,205,123.5z M19,123.5
	c0-43.8,33.9-79.7,76.7-83.2c0,9,0,18,0,24.8C87,66.9,78,70.6,70.5,76.7c-9.1,7.3-19.6,20.6-20.6,43.6c0,0.1,0,0.1,0,0.2
	c0,0.4,0,0.8,0,1.2c0,0.3,0,0.6,0,0.9c0,0.4,0,0.9,0,1.3c0,0.4,0,0.9,0,1.3c0,0.3,0,0.6,0,0.9c0,0.4,0,0.8,0,1.2c0,0.1,0,0.1,0,0.2
	c1,23,11.5,36.3,20.6,43.6c7.6,6.1,16.6,9.8,25.3,11.7c0,6.6,0,15.3,0,24C52.9,203.3,19,167.3,19,123.5z M108.7,206.8
	c0-8.2,0-16.4,0-22.8c3.7,0,7.2-0.4,10.2-1.2c11.3-3,18.6-7.9,22.3-15.1c5.2-10,1.9-22.9-7.1-28.3c-9.2-5.5-25.1-2.2-32,6.7
	c-5.3,6.8-6.3,15.5-6.5,23.5c-5.7-1.5-11.7-4.2-17.1-8.5c-10.2-8.1-15.4-20.1-15.8-35.5c0-0.5,0-1.1,0-1.6c0-0.5,0-1.1,0-1.6
	c0.3-15.4,5.6-27.4,15.8-35.5c5.4-4.3,11.4-7,17.1-8.5c0.1,8,1.2,16.7,6.5,23.5c6.9,8.9,22.8,12.2,32,6.7c9-5.4,12.2-18.4,7.1-28.4
	c-3.7-7.2-11-12.2-22.3-15.1c-3-0.8-6.5-1.2-10.2-1.3c0-6.6,0-15,0-23.4c43.1,3.2,77.3,39.3,77.3,83.2
	C186,167.5,151.9,203.6,108.7,206.8z M108.7,171c0-6.5,0.5-13,3.7-17.1c2-2.6,7.1-4.4,11.1-4.4c1.6,0,3,0.3,3.9,0.9
	c3.1,1.9,4.2,7.3,2.2,11.2c-2,3.8-6.5,6.6-14,8.5C113.8,170.7,111.4,171,108.7,171z M108.7,76.7c2.7,0,5.1,0.4,6.9,0.8
	c7.5,2,12.1,4.8,14,8.5c2,3.9,0.9,9.3-2.2,11.2c-3.5,2.1-12.3,0.1-15.1-3.5C109.2,89.6,108.7,83.1,108.7,76.7z"/>
<circle fill="#7D2854" cx="299.7" cy="86.2" r="8"/>
<g>
	<path fill="#7D2854" d="M495.8,95.6v7.2h-1.7v-7.2h-2.6v-1.4h6.7l0.2,1.4H495.8z"/>
	<path fill="#7D2854" d="M507.7,102.8l-0.5-6.4l-2.2,6.4h-1.5l-2.2-6.4l-0.4,6.4h-1.5l0.7-8.6h2.1l2.2,6.5l2.2-6.5h2.1l0.7,8.6
		H507.7z"/>
</g>
</svg>
