<?xml version="1.0" encoding="utf-8"?>
<!-- Generator: Adobe Illustrator 18.1.1, SVG Export Plug-In . SVG Version: 6.00 Build 0)  -->
<svg version="1.1" id="Layer_1" xmlns="http://www.w3.org/2000/svg" xmlns:xlink="http://www.w3.org/1999/xlink" x="0px" y="0px"
	 viewBox="0 0 30.4 28.8" enable-background="new 0 0 30.4 28.8" xml:space="preserve">
<g id="jpT9B8_1_">
	<g>
		<path fill="none" d="M0,28.8c0-2.8,0-5.6,0-8.5c0-2.8,0-5.6,0-8.4c0-2.8,0-5.6,0-8.5c0-0.7,0-1.4,0-2.1c0-0.4,0-0.7,0-1.1
			c0-0.1,0-0.2,0-0.3C0,0,0,0,0.1,0c0,0,0.1,0,0.1,0c0.2,0,0.4,0,0.6,0c1.5,0,3,0,4.5,0c3,0,5.9,0,8.9,0s5.9,0,8.9,0
			c1.5,0,3,0,4.4,0c0.7,0,1.5,0,2.2,0c0.2,0,0.4,0,0.5,0c0,0,0.1,0,0.1,0c0,0,0,0.1,0,0.1c0,0.1,0,0.2,0,0.3c0,0.4,0,0.7,0,1.1
			c0,2.8,0,5.6,0,8.4c0,2.8,0,5.6,0,8.4s0,5.6,0,8.4c0,0.7,0,1.4,0,2.1c-4,0-7.9,0-11.9,0c-3.9,0-7.9,0-11.8,0
			C4.4,28.8,2.2,28.8,0,28.8C0,19.2,10.1,28.8,0,28.8z M28.9,14.7c0-1.3-0.2-2.7-0.6-4c-0.4-1.2-1-2.4-1.8-3.5c-0.8-1-1.7-2-2.8-2.7
			c-1.1-0.8-2.3-1.4-3.6-1.9c-1.3-0.5-2.7-0.7-4.1-0.8c-1.4-0.1-2.9,0.1-4.2,0.5C10.5,2.6,9.2,3.2,8,3.9C6.9,4.6,5.9,5.5,5,6.5
			c-0.9,1-1.6,2.1-2.1,3.3c-0.5,1.2-0.9,2.5-1,3.9c-0.1,1.4,0,2.7,0.3,4.1c0.3,1.3,0.9,2.5,1.6,3.6c0.7,1.1,1.6,2.1,2.6,2.9
			c1,0.8,2.2,1.6,3.4,2.1c1.3,0.5,2.6,0.9,4,1c1.4,0.2,2.9,0.1,4.3-0.2c1.3-0.3,2.7-0.7,3.9-1.3c1.2-0.6,2.2-1.4,3.2-2.3
			c0.9-0.9,1.7-2,2.3-3.1c0.6-1.2,1-2.4,1.2-3.7C28.9,16,28.9,15.3,28.9,14.7C29,7.5,28.9,21.8,28.9,14.7z"/>
		<path fill="#2D3444" d="M28.9,14.7c0,1.3-0.2,2.7-0.7,4c-0.4,1.2-1,2.4-1.8,3.4c-0.8,1-1.7,2-2.8,2.7c-1.1,0.8-2.3,1.4-3.6,1.8
			c-1.3,0.5-2.7,0.7-4.1,0.8c-1.4,0.1-2.9-0.1-4.2-0.5c-1.3-0.3-2.6-0.9-3.8-1.6c-1.1-0.7-2.2-1.6-3-2.6c-0.9-1-1.6-2.1-2.1-3.3
			c-0.5-1.2-0.9-2.5-1-3.9c-0.1-1.4,0-2.7,0.3-4.1C2.6,10.3,3.1,9.1,3.9,8c0.7-1.1,1.6-2.1,2.6-3c1-0.9,2.2-1.6,3.4-2.1
			c1.3-0.5,2.6-0.9,4-1c1.4-0.1,2.9-0.1,4.3,0.2c1.4,0.3,2.7,0.7,3.9,1.4c1.2,0.6,2.2,1.4,3.2,2.3c0.9,0.9,1.7,2,2.3,3.1
			c0.6,1.2,1,2.5,1.2,3.8C28.9,13.3,28.9,14,28.9,14.7C28.9,21.8,29,7.5,28.9,14.7z M13.4,11.9c-0.2,0.3-0.5,0.2-0.8,0.2
			c-0.3,0-0.5,0.1-0.6,0.4c-0.1,0.3,0,0.6-0.1,0.8c0,0.3,0,0.6,0,0.8c0,0.2,0,0.4,0.2,0.5c0.2,0.1,0.4,0.1,0.6,0.1
			c0.1,0,0.2,0,0.3,0c0.1,0,0.1,0,0.2,0c0,0,0.1,0,0.1,0c0.1,0,0.1,0,0.1,0.1c0,0.1,0,0.3,0,0.4c0,0.2,0,0.3,0,0.5
			c0,0.6,0,1.3,0,1.9c0,0.6,0,1.3,0,1.9c0,0.3,0,0.6,0,1c0,0.2,0,0.5,0,0.7c0.1,0.4,0.6,0.4,0.9,0.3c0.3,0,0.6,0,1,0
			c0.3,0,0.5,0.1,0.8,0c0.4,0,0.5-0.3,0.5-0.6c0-0.3,0-0.5,0-0.8c0-0.3,0-0.6,0-1c0-1.3,0-2.6,0-3.8c0-0.3,0-0.7,0.4-0.8
			c0.4-0.1,0.7,0,1.1-0.1c0.2,0,0.4-0.1,0.5-0.3c0.1-0.3,0.1-0.6,0.1-0.9c0-0.3,0.1-0.5,0.1-0.8c0-0.1,0-0.3-0.1-0.4
			c-0.1-0.1-0.3-0.1-0.5-0.1c-0.3,0-0.5,0-0.8,0c-0.3,0-0.6,0-0.9,0c0-0.5,0-1,0.1-1.4c0.1-0.4,0.6-0.5,1-0.6
			c0.3-0.1,0.5-0.1,0.8-0.1c0.1,0,0.3,0,0.4-0.1c0.1,0,0,0,0.1-0.1c0,0,0-0.1,0-0.1c0-0.1,0-0.2,0-0.3c0-0.3,0-0.6,0-0.9
			c0-0.2,0.1-0.5,0-0.8c-0.1-0.5-0.7-0.3-1.1-0.3c-0.6,0-1.3,0-1.9,0.1c-0.8,0.1-1.6,0.4-2,1.1c-0.2,0.4-0.4,0.8-0.4,1.3
			C13.4,10.6,13.4,11.2,13.4,11.9C12.9,12.4,13.4,11.4,13.4,11.9z"/>
		<path fill="#FFFFFF" d="M13.4,11.9c0-0.6,0.1-1.1,0.1-1.7c0-0.4,0.1-0.8,0.3-1.2c0.3-0.7,1-1.1,1.8-1.3c0.6-0.1,1.2-0.1,1.8-0.1
			c0.3,0,0.6,0,1,0c0.2,0,0.4,0,0.5,0.1C19,7.8,19,8,19,8.2c0,0.3,0,0.6,0,0.9c0,0.1,0,0.3,0,0.4c0,0.1,0,0.4,0,0.4c0,0-0.2,0-0.2,0
			c-0.1,0-0.1,0-0.2,0c-0.1,0-0.3,0-0.4,0.1c-0.3,0-0.6,0.1-0.8,0.2c-0.2,0.1-0.4,0.2-0.5,0.4c-0.1,0.2-0.1,0.5-0.1,0.7
			c0,0.3,0,0.6,0,0.9c0.6,0,1.2,0,1.8,0c0.2,0,0.4,0,0.5,0.1c0.1,0.1,0.1,0.3,0.1,0.5c-0.1,0.4-0.1,0.9-0.2,1.3
			c0,0.2-0.1,0.4-0.3,0.5c-0.2,0.1-0.5,0.1-0.8,0.1c-0.3,0-0.8-0.1-1,0.3c-0.1,0.2-0.1,0.4-0.1,0.6c0,0.3,0,0.6,0,1
			c0,0.6,0,1.3,0,1.9c0,0.6,0,1.3,0,1.9c0,0.3,0.1,0.9-0.2,1.2c-0.3,0.3-0.8,0.1-1.2,0.1c-0.3,0-0.7,0-1,0c-0.2,0-0.5,0.1-0.7,0
			c-0.4-0.2-0.3-0.7-0.3-1c0-0.6,0-1.3,0-1.9c0-0.6,0-1.3,0-1.9c0-0.3,0-0.6,0-1c0-0.2,0-0.3,0-0.5c0-0.1,0-0.3,0-0.5
			c0-0.1,0,0-0.1-0.1c0,0-0.1,0-0.1,0c-0.1,0-0.1,0-0.2,0c-0.1,0-0.3,0-0.4,0c-0.2,0-0.4,0-0.6-0.1c-0.2-0.1-0.2-0.3-0.2-0.5
			c0-0.3,0-0.6,0-0.9c0-0.3,0-0.5,0.1-0.8c0-0.1,0.1-0.3,0.2-0.3c0.3-0.1,0.6,0,0.8,0C13.1,12.1,13.3,12,13.4,11.9
			C13.4,11.4,12.9,12.4,13.4,11.9z"/>
	</g>
</g>
</svg>
