<?xml version="1.0" encoding="utf-8"?>
<!-- Generator: Adobe Illustrator 18.1.0, SVG Export Plug-In . SVG Version: 6.00 Build 0)  -->
<!DOCTYPE svg PUBLIC "-//W3C//DTD SVG 1.1//EN" "http://www.w3.org/Graphics/SVG/1.1/DTD/svg11.dtd">
<svg version="1.1" xmlns="http://www.w3.org/2000/svg" xmlns:xlink="http://www.w3.org/1999/xlink" x="0px" y="0px"
	 viewBox="0 0 193.1 193.4" enable-background="new 0 0 193.1 193.4" xml:space="preserve">
<g>
	<g>
		<g>
			<path fill="#2D3444" d="M103.5,177.1c-48.3,0-87.6-39.3-87.6-87.6S55.2,2,103.5,2C151.8,2,191,41.3,191,89.6
				S151.8,177.1,103.5,177.1z"/>
		</g>
		<g>
			<path fill="#33B37B" d="M103.5,4C150.7,4,189,42.3,189,89.6s-38.3,85.6-85.6,85.6s-85.6-38.3-85.6-85.6S56.2,4,103.5,4 M103.5,0
				C54.1,0,13.9,40.2,13.9,89.6c0,49.4,40.2,89.6,89.6,89.6S193,139,193,89.6C193,40.2,152.9,0,103.5,0L103.5,0z"/>
		</g>
	</g>
	<g>
		<path fill="#2D3444" d="M71.8,73.8c-1.7,0-3.1-1.4-3.1-3.1s1.4-3.1,3.1-3.1c0.5,0,0.9,0.4,0.9,0.9s-0.4,0.9-0.9,0.9
			c-0.7,0-1.2,0.5-1.2,1.2s0.5,1.2,1.2,1.2c0.5,0,0.9,0.4,0.9,0.9S72.3,73.8,71.8,73.8z"/>
	</g>
	<g>

			<path fill="none" stroke="#221F1F" stroke-width="2.7612" stroke-linecap="round" stroke-linejoin="round" stroke-miterlimit="10" d="
			M80.3,66.1"/>
	</g>
	<g>
		<path fill="#221F1F" d="M71.8,80.6c-5.5,0-9.9-4.4-9.9-9.9c0-5.5,4.4-9.9,9.9-9.9v2.8c-3.9,0-7.2,3.2-7.2,7.2
			c0,3.9,3.2,7.2,7.2,7.2V80.6z"/>
	</g>
	<g>
		<path fill="#2D3444" d="M84.7,122.4c-0.8,0-1.4-0.6-1.4-1.4v-14.1c0-0.8,0.6-1.4,1.4-1.4s1.4,0.6,1.4,1.4V121
			C86.1,121.8,85.4,122.4,84.7,122.4z"/>
	</g>
	<g>
		<path fill="#2D3444" d="M80.1,64L80.1,64l-10.4,0c-1,0-1.8-0.8-1.8-1.8s0.8-1.8,1.8-1.8l0,0l10.4,0c1,0,1.8,0.8,1.8,1.8
			S81.1,64,80.1,64z"/>
	</g>
	<g>
		<path fill="#E4EBEF" d="M76.8,31.8c-1.3,0-2.3-1-2.3-2.3c0-0.8,0.4-1.4,1-1.9c0.1,0,0.1-0.1,0.2-0.2C87,16.8,102,13.3,116.8,17.9
			c1.2,0.4,1.9,1.7,1.5,2.9c-0.4,1.2-1.7,1.9-2.9,1.5c-18-5.6-30.7,2.9-36.6,8.4C78.3,31.3,77.8,31.8,76.8,31.8z"/>
	</g>
	<g>
		<defs>
			<circle id="SVGID_7_" cx="103.5" cy="89.6" r="85.6"/>
		</defs>
		<clipPath id="SVGID_2_">
			<use xlink:href="#SVGID_7_"  overflow="visible"/>
		</clipPath>
		<g clip-path="url(#SVGID_2_)">

				<path fill="none" stroke="#221F1F" stroke-width="0.9204" stroke-linecap="round" stroke-linejoin="round" stroke-miterlimit="10" d="
				M133.6,40.8"/>
		</g>
		<g clip-path="url(#SVGID_2_)">
			<circle fill="#2D3444" cx="103.5" cy="89.6" r="85.6"/>
		</g>
		<g clip-path="url(#SVGID_2_)">
			<g>
				<defs>
					<circle id="SVGID_9_" cx="103.5" cy="89.6" r="85.6"/>
				</defs>
				<clipPath id="SVGID_4_">
					<use xlink:href="#SVGID_9_"  overflow="visible"/>
				</clipPath>
				<rect x="17.9" y="4" clip-path="url(#SVGID_4_)" fill="#2D3444" width="171.2" height="171.2"/>
				<circle clip-path="url(#SVGID_4_)" fill="#2D3444" cx="103.5" cy="89.6" r="85.6"/>
				<circle clip-path="url(#SVGID_4_)" fill="#2D3444" cx="103.5" cy="89.6" r="66.1"/>
			</g>
		</g>

		<g clip-path="url(#SVGID_2_)">
			<path fill="#F8AA92" d="M103.9,91c-3.2,0-6.6-1.6-7-1.8c-1.1-0.6-1.6-1.9-1.1-3.1c0.6-1.1,1.9-1.6,3.1-1.1l0,0
				c0.8,0.4,3.2,1.4,5,1.4c1.8,0,4-1,4.7-1.3c1.1-0.6,2.5-0.2,3.1,1c0.6,1.1,0.2,2.5-1,3.1C110.4,89.3,107.1,91,103.9,91z"/>
		</g>
		<g clip-path="url(#SVGID_2_)">
			<rect x="81.3" y="105.4" fill="#FBCBBD" width="42.1" height="21"/>
		</g>
		<g clip-path="url(#SVGID_2_)">
			<path fill="#F8AA92" d="M110.2,52.7H97.4c-1,0-1.8-0.8-1.8-1.8s0.8-1.8,1.8-1.8h12.8c1,0,1.8,0.8,1.8,1.8S111.2,52.7,110.2,52.7z
				"/>
		</g>
		<g clip-path="url(#SVGID_2_)">
			<path fill="#FBCBBD" d="M69.6,58.4c-4.1,1.1-9.4,6.1-9.2,12c0,8,7.2,11.6,8.9,11.7c0,0,1.4,19.8,19.2,31.1c0,0,3.2,7.3,8.5,7.3
				c1.6,0,3.1-0.5,4.3-1.4l0,0c1.1,0.8,2.6,1.4,4.3,1.4c5.3,0,8.5-6.4,8.5-6.4l0,0c17.1-9.5,21.3-34.2,21.3-34.2
				c0.7,0,1.5-0.1,2.1-0.3c3.7-0.9,6.4-4.3,6.4-8.3c0-3.8-2.5-7.4-5.9-8.5l-2.6-0.7c0,0,2.1-1.3,2.1-12s-2.5-19.3-2.5-19.3l-2.7-4.1
				c0.6-2.5,1.3-6.6,1.3-6.6s-8.9,5.9-15.4,2.2c-1.3-0.6-7.7-4.3-17.1-4.3c-14.8,0-24.7,7.1-29.4,19.5C71.9,37.7,67.4,48,69.6,58.4z
				"/>
		</g>
		<g clip-path="url(#SVGID_2_)">
			<path fill="#E4EBEF" d="M68.6,33.5c5.1-13.3,18.4-21.1,33.2-21.1c9.3,0,16.2,6.6,17.5,7.1c6.5,3.7,12.8,0,12.8,0
				s-0.5,7.4-4.3,12.8c-5.5,8.1-15.7,10.6-25.6,10.7C89.2,43,78,37.2,78,37.2l-5.6,25c0,0-4.1,0.8-6.2,0.8
				c-1.8-7.5,0.2-16.2,0.2-16.2s-4.7-6-4.7-11.2C67.4,36.2,68.6,33.5,68.6,33.5z"/>
		</g>
		<g clip-path="url(#SVGID_2_)">
			<path fill="#E4EBEF" d="M129.4,38.7l4.3,23.5h4.3c0,0,2.1-4.3,2.1-14.9S135.8,28,135.8,28S134.3,33.6,129.4,38.7z"/>
		</g>
		<g clip-path="url(#SVGID_2_)">
			<g>
				<path fill="#D1DEE5" d="M133.7,32c3.5,8.5,3.2,19.1,1.5,27.9c-0.4,2.2,2.9,3.1,3.3,0.9c1.9-9.4,2.3-20.7-1.5-29.8
					C136.2,29,132.8,29.9,133.7,32L133.7,32z"/>
			</g>
		</g>
		<g clip-path="url(#SVGID_2_)">
			<path fill="#2D3444" d="M107.9,51.3h-8.1c-0.5,0-0.9-0.4-0.9-0.9s0.4-0.9,0.9-0.9h8.1c0.5,0,0.9,0.4,0.9,0.9
				S108.4,51.3,107.9,51.3z"/>
		</g>
		<g clip-path="url(#SVGID_2_)">
			<path fill="#F8AA92" d="M99.7,118.2c-3.3,0-6.4-2.1-9.2-6.3c-0.1-0.1-0.1-0.2-0.2-0.3c-16.3-8-19.8-30-19.9-31
				c-0.2-1.3,0.7-2.4,1.9-2.6c1.3-0.2,2.4,0.7,2.6,1.9l0,0c0,0.2,3.3,21,17.8,27.7c0.3,0.1,0.6,0.4,0.8,0.7c0.2,0.2,0.4,0.5,0.7,0.9
				c2.6,3.8,4.7,5.5,8.2,3.3c0.7-0.5,1.6-0.5,2.4-0.1l0.2,0.1c1.4,0.8,3.9,2.2,8.4-1.8c0.9-0.9,2.4-0.8,3.2,0.2
				c0.9,0.9,0.8,2.4-0.2,3.2c-5.9,5.3-10.5,4-12.8,2.9C102.4,117.8,101,118.2,99.7,118.2z"/>
		</g>
		<g clip-path="url(#SVGID_2_)">
			<ellipse fill="#95D8EC" cx="104.1" cy="160.8" rx="71.3" ry="33.4"/>
		</g>
		<g clip-path="url(#SVGID_2_)">
			<g>
				<path fill="#4BC1E1" d="M139.5,136c0-0.8,0.6-1.4,1.4-1.4l0,0c0.8,0,1.4,0.6,1.4,1.4l0,0c0,0.8-0.6,1.4-1.4,1.4l0,0
					C140.1,137.4,139.5,136.8,139.5,136z M133,136c0-0.8,0.6-1.4,1.4-1.4l0,0c0.8,0,1.4,0.6,1.4,1.4l0,0c0,0.8-0.6,1.4-1.4,1.4l0,0
					C133.7,137.4,133,136.8,133,136z M126.6,136c0-0.8,0.6-1.4,1.4-1.4l0,0c0.8,0,1.4,0.6,1.4,1.4l0,0c0,0.8-0.6,1.4-1.4,1.4l0,0
					C127.2,137.4,126.6,136.8,126.6,136z M120.2,136c0-0.8,0.6-1.4,1.4-1.4l0,0c0.8,0,1.4,0.6,1.4,1.4l0,0c0,0.8-0.6,1.4-1.4,1.4
					l0,0C120.8,137.4,120.2,136.8,120.2,136z M113.7,136c0-0.8,0.6-1.4,1.4-1.4l0,0c0.8,0,1.4,0.6,1.4,1.4l0,0
					c0,0.8-0.6,1.4-1.4,1.4l0,0C114.3,137.4,113.7,136.8,113.7,136z M107.3,136c0-0.8,0.6-1.4,1.4-1.4l0,0c0.8,0,1.4,0.6,1.4,1.4
					l0,0c0,0.8-0.6,1.4-1.4,1.4l0,0C107.9,137.4,107.3,136.8,107.3,136z M100.8,136c0-0.8,0.6-1.4,1.4-1.4l0,0
					c0.8,0,1.4,0.6,1.4,1.4l0,0c0,0.8-0.6,1.4-1.4,1.4l0,0C101.4,137.4,100.8,136.8,100.8,136z M94.4,136c0-0.8,0.6-1.4,1.4-1.4l0,0
					c0.8,0,1.4,0.6,1.4,1.4l0,0c0,0.8-0.6,1.4-1.4,1.4l0,0C95,137.4,94.4,136.8,94.4,136z M87.9,136c0-0.8,0.6-1.4,1.4-1.4l0,0
					c0.8,0,1.4,0.6,1.4,1.4l0,0c0,0.8-0.6,1.4-1.4,1.4l0,0C88.6,137.4,87.9,136.8,87.9,136z M81.5,136c0-0.8,0.6-1.4,1.4-1.4l0,0
					c0.8,0,1.4,0.6,1.4,1.4l0,0c0,0.8-0.6,1.4-1.4,1.4l0,0C82.1,137.4,81.5,136.8,81.5,136z M75.1,136c0-0.8,0.6-1.4,1.4-1.4l0,0
					c0.8,0,1.4,0.6,1.4,1.4l0,0c0,0.8-0.6,1.4-1.4,1.4l0,0C75.7,137.4,75.1,136.8,75.1,136z M68.6,136c0-0.8,0.6-1.4,1.4-1.4l0,0
					c0.8,0,1.4,0.6,1.4,1.4l0,0c0,0.8-0.6,1.4-1.4,1.4l0,0C69.2,137.4,68.6,136.8,68.6,136z M62.2,136c0-0.8,0.6-1.4,1.4-1.4l0,0
					c0.8,0,1.4,0.6,1.4,1.4l0,0c0,0.8-0.6,1.4-1.4,1.4l0,0C62.8,137.4,62.2,136.8,62.2,136z"/>
			</g>
			<g>
				<path fill="#4BC1E1" d="M158.8,142.5c0-0.8,0.6-1.4,1.4-1.4l0,0c0.8,0,1.4,0.6,1.4,1.4l0,0c0,0.8-0.6,1.4-1.4,1.4l0,0
					C159.4,143.8,158.8,143.2,158.8,142.5z M152.4,142.5c0-0.8,0.6-1.4,1.4-1.4l0,0c0.8,0,1.4,0.6,1.4,1.4l0,0
					c0,0.8-0.6,1.4-1.4,1.4l0,0C153,143.8,152.4,143.2,152.4,142.5z M145.9,142.5c0-0.8,0.6-1.4,1.4-1.4l0,0c0.8,0,1.4,0.6,1.4,1.4
					l0,0c0,0.8-0.6,1.4-1.4,1.4l0,0C146.5,143.8,145.9,143.2,145.9,142.5z M139.5,142.5c0-0.8,0.6-1.4,1.4-1.4l0,0
					c0.8,0,1.4,0.6,1.4,1.4l0,0c0,0.8-0.6,1.4-1.4,1.4l0,0C140.1,143.8,139.5,143.2,139.5,142.5z M133,142.5c0-0.8,0.6-1.4,1.4-1.4
					l0,0c0.8,0,1.4,0.6,1.4,1.4l0,0c0,0.8-0.6,1.4-1.4,1.4l0,0C133.7,143.8,133,143.2,133,142.5z M126.6,142.5
					c0-0.8,0.6-1.4,1.4-1.4l0,0c0.8,0,1.4,0.6,1.4,1.4l0,0c0,0.8-0.6,1.4-1.4,1.4l0,0C127.2,143.8,126.6,143.2,126.6,142.5z
					 M120.2,142.5c0-0.8,0.6-1.4,1.4-1.4l0,0c0.8,0,1.4,0.6,1.4,1.4l0,0c0,0.8-0.6,1.4-1.4,1.4l0,0
					C120.8,143.8,120.2,143.2,120.2,142.5z M113.7,142.5c0-0.8,0.6-1.4,1.4-1.4l0,0c0.8,0,1.4,0.6,1.4,1.4l0,0
					c0,0.8-0.6,1.4-1.4,1.4l0,0C114.3,143.8,113.7,143.2,113.7,142.5z M107.3,142.5c0-0.8,0.6-1.4,1.4-1.4l0,0
					c0.8,0,1.4,0.6,1.4,1.4l0,0c0,0.8-0.6,1.4-1.4,1.4l0,0C107.9,143.8,107.3,143.2,107.3,142.5z M100.8,142.5
					c0-0.8,0.6-1.4,1.4-1.4l0,0c0.8,0,1.4,0.6,1.4,1.4l0,0c0,0.8-0.6,1.4-1.4,1.4l0,0C101.4,143.8,100.8,143.2,100.8,142.5z
					 M94.4,142.5c0-0.8,0.6-1.4,1.4-1.4l0,0c0.8,0,1.4,0.6,1.4,1.4l0,0c0,0.8-0.6,1.4-1.4,1.4l0,0C95,143.8,94.4,143.2,94.4,142.5z
					 M87.9,142.5c0-0.8,0.6-1.4,1.4-1.4l0,0c0.8,0,1.4,0.6,1.4,1.4l0,0c0,0.8-0.6,1.4-1.4,1.4l0,0C88.6,143.8,87.9,143.2,87.9,142.5
					z M81.5,142.5c0-0.8,0.6-1.4,1.4-1.4l0,0c0.8,0,1.4,0.6,1.4,1.4l0,0c0,0.8-0.6,1.4-1.4,1.4l0,0
					C82.1,143.8,81.5,143.2,81.5,142.5z M75.1,142.5c0-0.8,0.6-1.4,1.4-1.4l0,0c0.8,0,1.4,0.6,1.4,1.4l0,0c0,0.8-0.6,1.4-1.4,1.4
					l0,0C75.7,143.8,75.1,143.2,75.1,142.5z M68.6,142.5c0-0.8,0.6-1.4,1.4-1.4l0,0c0.8,0,1.4,0.6,1.4,1.4l0,0
					c0,0.8-0.6,1.4-1.4,1.4l0,0C69.2,143.8,68.6,143.2,68.6,142.5z M62.2,142.5c0-0.8,0.6-1.4,1.4-1.4l0,0c0.8,0,1.4,0.6,1.4,1.4
					l0,0c0,0.8-0.6,1.4-1.4,1.4l0,0C62.8,143.8,62.2,143.2,62.2,142.5z"/>
			</g>
			<g>
				<path fill="#4BC1E1" d="M165.3,148.9c0-0.8,0.6-1.4,1.4-1.4l0,0c0.8,0,1.4,0.6,1.4,1.4l0,0c0,0.8-0.6,1.4-1.4,1.4l0,0
					C165.9,150.3,165.3,149.7,165.3,148.9z M158.8,148.9c0-0.8,0.6-1.4,1.4-1.4l0,0c0.8,0,1.4,0.6,1.4,1.4l0,0
					c0,0.8-0.6,1.4-1.4,1.4l0,0C159.4,150.3,158.8,149.7,158.8,148.9z M152.4,148.9c0-0.8,0.6-1.4,1.4-1.4l0,0
					c0.8,0,1.4,0.6,1.4,1.4l0,0c0,0.8-0.6,1.4-1.4,1.4l0,0C153,150.3,152.4,149.7,152.4,148.9z M145.9,148.9c0-0.8,0.6-1.4,1.4-1.4
					l0,0c0.8,0,1.4,0.6,1.4,1.4l0,0c0,0.8-0.6,1.4-1.4,1.4l0,0C146.5,150.3,145.9,149.7,145.9,148.9z M139.5,148.9
					c0-0.8,0.6-1.4,1.4-1.4l0,0c0.8,0,1.4,0.6,1.4,1.4l0,0c0,0.8-0.6,1.4-1.4,1.4l0,0C140.1,150.3,139.5,149.7,139.5,148.9z
					 M133,148.9c0-0.8,0.6-1.4,1.4-1.4l0,0c0.8,0,1.4,0.6,1.4,1.4l0,0c0,0.8-0.6,1.4-1.4,1.4l0,0C133.7,150.3,133,149.7,133,148.9z
					 M126.6,148.9c0-0.8,0.6-1.4,1.4-1.4l0,0c0.8,0,1.4,0.6,1.4,1.4l0,0c0,0.8-0.6,1.4-1.4,1.4l0,0
					C127.2,150.3,126.6,149.7,126.6,148.9z M120.2,148.9c0-0.8,0.6-1.4,1.4-1.4l0,0c0.8,0,1.4,0.6,1.4,1.4l0,0
					c0,0.8-0.6,1.4-1.4,1.4l0,0C120.8,150.3,120.2,149.7,120.2,148.9z M113.7,148.9c0-0.8,0.6-1.4,1.4-1.4l0,0
					c0.8,0,1.4,0.6,1.4,1.4l0,0c0,0.8-0.6,1.4-1.4,1.4l0,0C114.3,150.3,113.7,149.7,113.7,148.9z M107.3,148.9
					c0-0.8,0.6-1.4,1.4-1.4l0,0c0.8,0,1.4,0.6,1.4,1.4l0,0c0,0.8-0.6,1.4-1.4,1.4l0,0C107.9,150.3,107.3,149.7,107.3,148.9z
					 M100.8,148.9c0-0.8,0.6-1.4,1.4-1.4l0,0c0.8,0,1.4,0.6,1.4,1.4l0,0c0,0.8-0.6,1.4-1.4,1.4l0,0
					C101.4,150.3,100.8,149.7,100.8,148.9z M94.4,148.9c0-0.8,0.6-1.4,1.4-1.4l0,0c0.8,0,1.4,0.6,1.4,1.4l0,0c0,0.8-0.6,1.4-1.4,1.4
					l0,0C95,150.3,94.4,149.7,94.4,148.9z M87.9,148.9c0-0.8,0.6-1.4,1.4-1.4l0,0c0.8,0,1.4,0.6,1.4,1.4l0,0c0,0.8-0.6,1.4-1.4,1.4
					l0,0C88.6,150.3,87.9,149.7,87.9,148.9z M81.5,148.9c0-0.8,0.6-1.4,1.4-1.4l0,0c0.8,0,1.4,0.6,1.4,1.4l0,0
					c0,0.8-0.6,1.4-1.4,1.4l0,0C82.1,150.3,81.5,149.7,81.5,148.9z M75.1,148.9c0-0.8,0.6-1.4,1.4-1.4l0,0c0.8,0,1.4,0.6,1.4,1.4
					l0,0c0,0.8-0.6,1.4-1.4,1.4l0,0C75.7,150.3,75.1,149.7,75.1,148.9z M68.6,148.9c0-0.8,0.6-1.4,1.4-1.4l0,0
					c0.8,0,1.4,0.6,1.4,1.4l0,0c0,0.8-0.6,1.4-1.4,1.4l0,0C69.2,150.3,68.6,149.7,68.6,148.9z M62.2,148.9c0-0.8,0.6-1.4,1.4-1.4
					l0,0c0.8,0,1.4,0.6,1.4,1.4l0,0c0,0.8-0.6,1.4-1.4,1.4l0,0C62.8,150.3,62.2,149.7,62.2,148.9z"/>
			</g>
			<g>
				<path fill="#4BC1E1" d="M171.7,155.3c0-0.8,0.6-1.4,1.4-1.4l0,0c0.8,0,1.4,0.6,1.4,1.4l0,0c0,0.8-0.6,1.4-1.4,1.4l0,0
					C172.3,156.7,171.7,156.1,171.7,155.3z M165.3,155.3c0-0.8,0.6-1.4,1.4-1.4l0,0c0.8,0,1.4,0.6,1.4,1.4l0,0
					c0,0.8-0.6,1.4-1.4,1.4l0,0C165.9,156.7,165.3,156.1,165.3,155.3z M158.8,155.3c0-0.8,0.6-1.4,1.4-1.4l0,0
					c0.8,0,1.4,0.6,1.4,1.4l0,0c0,0.8-0.6,1.4-1.4,1.4l0,0C159.4,156.7,158.8,156.1,158.8,155.3z M152.4,155.3
					c0-0.8,0.6-1.4,1.4-1.4l0,0c0.8,0,1.4,0.6,1.4,1.4l0,0c0,0.8-0.6,1.4-1.4,1.4l0,0C153,156.7,152.4,156.1,152.4,155.3z
					 M145.9,155.3c0-0.8,0.6-1.4,1.4-1.4l0,0c0.8,0,1.4,0.6,1.4,1.4l0,0c0,0.8-0.6,1.4-1.4,1.4l0,0
					C146.5,156.7,145.9,156.1,145.9,155.3z M139.5,155.3c0-0.8,0.6-1.4,1.4-1.4l0,0c0.8,0,1.4,0.6,1.4,1.4l0,0
					c0,0.8-0.6,1.4-1.4,1.4l0,0C140.1,156.7,139.5,156.1,139.5,155.3z M133,155.3c0-0.8,0.6-1.4,1.4-1.4l0,0c0.8,0,1.4,0.6,1.4,1.4
					l0,0c0,0.8-0.6,1.4-1.4,1.4l0,0C133.7,156.7,133,156.1,133,155.3z M126.6,155.3c0-0.8,0.6-1.4,1.4-1.4l0,0
					c0.8,0,1.4,0.6,1.4,1.4l0,0c0,0.8-0.6,1.4-1.4,1.4l0,0C127.2,156.7,126.6,156.1,126.6,155.3z M120.2,155.3
					c0-0.8,0.6-1.4,1.4-1.4l0,0c0.8,0,1.4,0.6,1.4,1.4l0,0c0,0.8-0.6,1.4-1.4,1.4l0,0C120.8,156.7,120.2,156.1,120.2,155.3z
					 M113.7,155.3c0-0.8,0.6-1.4,1.4-1.4l0,0c0.8,0,1.4,0.6,1.4,1.4l0,0c0,0.8-0.6,1.4-1.4,1.4l0,0
					C114.3,156.7,113.7,156.1,113.7,155.3z M107.3,155.3c0-0.8,0.6-1.4,1.4-1.4l0,0c0.8,0,1.4,0.6,1.4,1.4l0,0
					c0,0.8-0.6,1.4-1.4,1.4l0,0C107.9,156.7,107.3,156.1,107.3,155.3z M100.8,155.3c0-0.8,0.6-1.4,1.4-1.4l0,0
					c0.8,0,1.4,0.6,1.4,1.4l0,0c0,0.8-0.6,1.4-1.4,1.4l0,0C101.4,156.7,100.8,156.1,100.8,155.3z M94.4,155.3c0-0.8,0.6-1.4,1.4-1.4
					l0,0c0.8,0,1.4,0.6,1.4,1.4l0,0c0,0.8-0.6,1.4-1.4,1.4l0,0C95,156.7,94.4,156.1,94.4,155.3z M87.9,155.3c0-0.8,0.6-1.4,1.4-1.4
					l0,0c0.8,0,1.4,0.6,1.4,1.4l0,0c0,0.8-0.6,1.4-1.4,1.4l0,0C88.6,156.7,87.9,156.1,87.9,155.3z M81.5,155.3
					c0-0.8,0.6-1.4,1.4-1.4l0,0c0.8,0,1.4,0.6,1.4,1.4l0,0c0,0.8-0.6,1.4-1.4,1.4l0,0C82.1,156.7,81.5,156.1,81.5,155.3z
					 M75.1,155.3c0-0.8,0.6-1.4,1.4-1.4l0,0c0.8,0,1.4,0.6,1.4,1.4l0,0c0,0.8-0.6,1.4-1.4,1.4l0,0C75.7,156.7,75.1,156.1,75.1,155.3
					z M68.6,155.3c0-0.8,0.6-1.4,1.4-1.4l0,0c0.8,0,1.4,0.6,1.4,1.4l0,0c0,0.8-0.6,1.4-1.4,1.4l0,0
					C69.2,156.7,68.6,156.1,68.6,155.3z M62.2,155.3c0-0.8,0.6-1.4,1.4-1.4l0,0c0.8,0,1.4,0.6,1.4,1.4l0,0c0,0.8-0.6,1.4-1.4,1.4
					l0,0C62.8,156.7,62.2,156.1,62.2,155.3z"/>
			</g>
			<g>
				<path fill="#4BC1E1" d="M62.2,161.8c0-0.8,0.6-1.4,1.4-1.4l0,0c0.8,0,1.4,0.6,1.4,1.4l0,0c0,0.8-0.6,1.4-1.4,1.4l0,0
					C62.8,163.2,62.2,162.6,62.2,161.8z M68.6,161.8c0-0.8,0.6-1.4,1.4-1.4l0,0c0.8,0,1.4,0.6,1.4,1.4l0,0c0,0.8-0.6,1.4-1.4,1.4
					l0,0C69.2,163.2,68.6,162.5,68.6,161.8z M75.1,161.8c0-0.8,0.6-1.4,1.4-1.4l0,0c0.8,0,1.4,0.6,1.4,1.4l0,0
					c0,0.8-0.6,1.4-1.4,1.4l0,0C75.7,163.1,75.1,162.5,75.1,161.8z M81.5,161.8c0-0.8,0.6-1.4,1.4-1.4l0,0c0.8,0,1.4,0.6,1.4,1.4
					l0,0c0,0.8-0.6,1.4-1.4,1.4l0,0C82.1,163.1,81.5,162.5,81.5,161.8z M87.9,161.7c0-0.8,0.6-1.4,1.4-1.4l0,0
					c0.8,0,1.4,0.6,1.4,1.4l0,0c0,0.8-0.6,1.4-1.4,1.4l0,0C88.6,163.1,87.9,162.5,87.9,161.7z M94.4,161.7c0-0.8,0.6-1.4,1.4-1.4
					l0,0c0.8,0,1.4,0.6,1.4,1.4l0,0c0,0.8-0.6,1.4-1.4,1.4l0,0C95,163.1,94.4,162.5,94.4,161.7z M100.8,161.7c0-0.8,0.6-1.4,1.4-1.4
					l0,0c0.8,0,1.4,0.6,1.4,1.4l0,0c0,0.8-0.6,1.4-1.4,1.4l0,0C101.4,163.1,100.8,162.5,100.8,161.7z M107.3,161.7
					c0-0.8,0.6-1.4,1.4-1.4l0,0c0.8,0,1.4,0.6,1.4,1.4l0,0c0,0.8-0.6,1.4-1.4,1.4l0,0C107.9,163.1,107.3,162.5,107.3,161.7z
					 M113.7,161.7c0-0.8,0.6-1.4,1.4-1.4l0,0c0.8,0,1.4,0.6,1.4,1.4l0,0c0,0.8-0.6,1.4-1.4,1.4l0,0
					C114.3,163.1,113.7,162.4,113.7,161.7z M120.2,161.7c0-0.8,0.6-1.4,1.4-1.4l0,0c0.8,0,1.4,0.6,1.4,1.4l0,0
					c0,0.8-0.6,1.4-1.4,1.4l0,0C120.8,163,120.2,162.4,120.2,161.7z M126.6,161.7c0-0.8,0.6-1.4,1.4-1.4l0,0c0.8,0,1.4,0.6,1.4,1.4
					l0,0c0,0.8-0.6,1.4-1.4,1.4l0,0C127.2,163,126.6,162.4,126.6,161.7z M133,161.6c0-0.8,0.6-1.4,1.4-1.4l0,0
					c0.8,0,1.4,0.6,1.4,1.4l0,0c0,0.8-0.6,1.4-1.4,1.4l0,0C133.7,163,133,162.4,133,161.6z M139.5,161.6c0-0.8,0.6-1.4,1.4-1.4l0,0
					c0.8,0,1.4,0.6,1.4,1.4l0,0c0,0.8-0.6,1.4-1.4,1.4l0,0C140.1,163,139.5,162.4,139.5,161.6z M145.9,161.6c0-0.8,0.6-1.4,1.4-1.4
					l0,0c0.8,0,1.4,0.6,1.4,1.4l0,0c0,0.8-0.6,1.4-1.4,1.4l0,0C146.5,163,145.9,162.4,145.9,161.6z M152.4,161.6
					c0-0.8,0.6-1.4,1.4-1.4l0,0c0.8,0,1.4,0.6,1.4,1.4l0,0c0,0.8-0.6,1.4-1.4,1.4l0,0C153,163,152.4,162.4,152.4,161.6z
					 M158.8,161.6c0-0.8,0.6-1.4,1.4-1.4l0,0c0.8,0,1.4,0.6,1.4,1.4l0,0c0,0.8-0.6,1.4-1.4,1.4l0,0
					C159.4,163,158.8,162.3,158.8,161.6z M165.3,161.6c0-0.8,0.6-1.4,1.4-1.4l0,0c0.8,0,1.4,0.6,1.4,1.4l0,0c0,0.8-0.6,1.4-1.4,1.4
					l0,0C165.9,162.9,165.3,162.3,165.3,161.6z M171.7,161.6c0-0.8,0.6-1.4,1.4-1.4l0,0c0.8,0,1.4,0.6,1.4,1.4l0,0
					c0,0.8-0.6,1.4-1.4,1.4l0,0C172.3,162.9,171.7,162.3,171.7,161.6z"/>
			</g>
			<g>
				<path fill="#4BC1E1" d="M62.2,168.2c0-0.8,0.6-1.4,1.4-1.4l0,0c0.8,0,1.4,0.6,1.4,1.4l0,0c0,0.8-0.6,1.4-1.4,1.4l0,0
					C62.8,169.6,62.2,169,62.2,168.2z M68.6,168.2c0-0.8,0.6-1.4,1.4-1.4l0,0c0.8,0,1.4,0.6,1.4,1.4l0,0c0,0.8-0.6,1.4-1.4,1.4l0,0
					C69.2,169.6,68.6,169,68.6,168.2z M75.1,168.2c0-0.8,0.6-1.4,1.4-1.4l0,0c0.8,0,1.4,0.6,1.4,1.4l0,0c0,0.8-0.6,1.4-1.4,1.4l0,0
					C75.7,169.6,75.1,169,75.1,168.2z M81.5,168.2c0-0.8,0.6-1.4,1.4-1.4l0,0c0.8,0,1.4,0.6,1.4,1.4l0,0c0,0.8-0.6,1.4-1.4,1.4l0,0
					C82.1,169.6,81.5,169,81.5,168.2z M87.9,168.2c0-0.8,0.6-1.4,1.4-1.4l0,0c0.8,0,1.4,0.6,1.4,1.4l0,0c0,0.8-0.6,1.4-1.4,1.4l0,0
					C88.6,169.6,87.9,168.9,87.9,168.2z M94.4,168.2c0-0.8,0.6-1.4,1.4-1.4l0,0c0.8,0,1.4,0.6,1.4,1.4l0,0c0,0.8-0.6,1.4-1.4,1.4
					l0,0C95,169.5,94.4,168.9,94.4,168.2z M100.8,168.2c0-0.8,0.6-1.4,1.4-1.4l0,0c0.8,0,1.4,0.6,1.4,1.4l0,0c0,0.8-0.6,1.4-1.4,1.4
					l0,0C101.4,169.5,100.8,168.9,100.8,168.2z M107.3,168.1c0-0.8,0.6-1.4,1.4-1.4l0,0c0.8,0,1.4,0.6,1.4,1.4l0,0
					c0,0.8-0.6,1.4-1.4,1.4l0,0C107.9,169.5,107.3,168.9,107.3,168.1z M113.7,168.1c0-0.8,0.6-1.4,1.4-1.4l0,0
					c0.8,0,1.4,0.6,1.4,1.4l0,0c0,0.8-0.6,1.4-1.4,1.4l0,0C114.3,169.5,113.7,168.9,113.7,168.1z M120.2,168.1
					c0-0.8,0.6-1.4,1.4-1.4l0,0c0.8,0,1.4,0.6,1.4,1.4l0,0c0,0.8-0.6,1.4-1.4,1.4l0,0C120.8,169.5,120.2,168.9,120.2,168.1z
					 M126.6,168.1c0-0.8,0.6-1.4,1.4-1.4l0,0c0.8,0,1.4,0.6,1.4,1.4l0,0c0,0.8-0.6,1.4-1.4,1.4l0,0
					C127.2,169.5,126.6,168.9,126.6,168.1z M133,168.1c0-0.8,0.6-1.4,1.4-1.4l0,0c0.8,0,1.4,0.6,1.4,1.4l0,0c0,0.8-0.6,1.4-1.4,1.4
					l0,0C133.7,169.5,133,168.8,133,168.1z M139.5,168.1c0-0.8,0.6-1.4,1.4-1.4l0,0c0.8,0,1.4,0.6,1.4,1.4l0,0
					c0,0.8-0.6,1.4-1.4,1.4l0,0C140.1,169.4,139.5,168.8,139.5,168.1z M145.9,168.1c0-0.8,0.6-1.4,1.4-1.4l0,0
					c0.8,0,1.4,0.6,1.4,1.4l0,0c0,0.8-0.6,1.4-1.4,1.4l0,0C146.5,169.4,145.9,168.8,145.9,168.1z M152.4,168c0-0.8,0.6-1.4,1.4-1.4
					l0,0c0.8,0,1.4,0.6,1.4,1.4l0,0c0,0.8-0.6,1.4-1.4,1.4l0,0C153,169.4,152.4,168.8,152.4,168z M158.8,168c0-0.8,0.6-1.4,1.4-1.4
					l0,0c0.8,0,1.4,0.6,1.4,1.4l0,0c0,0.8-0.6,1.4-1.4,1.4l0,0C159.4,169.4,158.8,168.8,158.8,168z M165.3,168
					c0-0.8,0.6-1.4,1.4-1.4l0,0c0.8,0,1.4,0.6,1.4,1.4l0,0c0,0.8-0.6,1.4-1.4,1.4l0,0C165.9,169.4,165.3,168.8,165.3,168z
					 M171.7,168c0-0.8,0.6-1.4,1.4-1.4l0,0c0.8,0,1.4,0.6,1.4,1.4l0,0c0,0.8-0.6,1.4-1.4,1.4l0,0C172.3,169.4,171.7,168.8,171.7,168
					z"/>
			</g>
			<g>
				<path fill="#4BC1E1" d="M62.2,174.7c0-0.8,0.6-1.4,1.4-1.4l0,0c0.8,0,1.4,0.6,1.4,1.4l0,0c0,0.8-0.6,1.4-1.4,1.4l0,0
					C62.8,176.1,62.2,175.4,62.2,174.7z M68.6,174.7c0-0.8,0.6-1.4,1.4-1.4l0,0c0.8,0,1.4,0.6,1.4,1.4l0,0c0,0.8-0.6,1.4-1.4,1.4
					l0,0C69.2,176,68.6,175.4,68.6,174.7z M75.1,174.6c0-0.8,0.6-1.4,1.4-1.4l0,0c0.8,0,1.4,0.6,1.4,1.4l0,0c0,0.8-0.6,1.4-1.4,1.4
					l0,0C75.7,176,75.1,175.4,75.1,174.6z M81.5,174.6c0-0.8,0.6-1.4,1.4-1.4l0,0c0.8,0,1.4,0.6,1.4,1.4l0,0c0,0.8-0.6,1.4-1.4,1.4
					l0,0C82.1,176,81.5,175.4,81.5,174.6z M87.9,174.6c0-0.8,0.6-1.4,1.4-1.4l0,0c0.8,0,1.4,0.6,1.4,1.4l0,0c0,0.8-0.6,1.4-1.4,1.4
					l0,0C88.6,176,87.9,175.4,87.9,174.6z M94.4,174.6c0-0.8,0.6-1.4,1.4-1.4l0,0c0.8,0,1.4,0.6,1.4,1.4l0,0c0,0.8-0.6,1.4-1.4,1.4
					l0,0C95,176,94.4,175.4,94.4,174.6z M100.8,174.6c0-0.8,0.6-1.4,1.4-1.4l0,0c0.8,0,1.4,0.6,1.4,1.4l0,0c0,0.8-0.6,1.4-1.4,1.4
					l0,0C101.4,176,100.8,175.4,100.8,174.6z M107.3,174.6c0-0.8,0.6-1.4,1.4-1.4l0,0c0.8,0,1.4,0.6,1.4,1.4l0,0
					c0,0.8-0.6,1.4-1.4,1.4l0,0C107.9,176,107.3,175.3,107.3,174.6z M113.7,174.6c0-0.8,0.6-1.4,1.4-1.4l0,0c0.8,0,1.4,0.6,1.4,1.4
					l0,0c0,0.8-0.6,1.4-1.4,1.4l0,0C114.3,175.9,113.7,175.3,113.7,174.6z M120.2,174.6c0-0.8,0.6-1.4,1.4-1.4l0,0
					c0.8,0,1.4,0.6,1.4,1.4l0,0c0,0.8-0.6,1.4-1.4,1.4l0,0C120.8,175.9,120.2,175.3,120.2,174.6z M126.6,174.5
					c0-0.8,0.6-1.4,1.4-1.4l0,0c0.8,0,1.4,0.6,1.4,1.4l0,0c0,0.8-0.6,1.4-1.4,1.4l0,0C127.2,175.9,126.6,175.3,126.6,174.5z
					 M133,174.5c0-0.8,0.6-1.4,1.4-1.4l0,0c0.8,0,1.4,0.6,1.4,1.4l0,0c0,0.8-0.6,1.4-1.4,1.4l0,0C133.7,175.9,133,175.3,133,174.5z
					 M139.5,174.5c0-0.8,0.6-1.4,1.4-1.4l0,0c0.8,0,1.4,0.6,1.4,1.4l0,0c0,0.8-0.6,1.4-1.4,1.4l0,0
					C140.1,175.9,139.5,175.3,139.5,174.5z M145.9,174.5c0-0.8,0.6-1.4,1.4-1.4l0,0c0.8,0,1.4,0.6,1.4,1.4l0,0
					c0,0.8-0.6,1.4-1.4,1.4l0,0C146.5,175.9,145.9,175.3,145.9,174.5z M152.4,174.5c0-0.8,0.6-1.4,1.4-1.4l0,0
					c0.8,0,1.4,0.6,1.4,1.4l0,0c0,0.8-0.6,1.4-1.4,1.4l0,0C153,175.9,152.4,175.2,152.4,174.5z M158.8,174.5c0-0.8,0.6-1.4,1.4-1.4
					l0,0c0.8,0,1.4,0.6,1.4,1.4l0,0c0,0.8-0.6,1.4-1.4,1.4l0,0C159.4,175.8,158.8,175.2,158.8,174.5z M165.3,174.5
					c0-0.8,0.6-1.4,1.4-1.4l0,0c0.8,0,1.4,0.6,1.4,1.4l0,0c0,0.8-0.6,1.4-1.4,1.4l0,0C165.9,175.8,165.3,175.2,165.3,174.5z
					 M171.7,174.4c0-0.8,0.6-1.4,1.4-1.4l0,0c0.8,0,1.4,0.6,1.4,1.4l0,0c0,0.8-0.6,1.4-1.4,1.4l0,0
					C172.3,175.8,171.7,175.2,171.7,174.4z"/>
			</g>
		</g>
		<g opacity="0.4" clip-path="url(#SVGID_2_)">
			<circle fill="#FAE9E7" cx="118.5" cy="68.6" r="10.7"/>
		</g>
		<g opacity="0.4" clip-path="url(#SVGID_2_)">
			<circle fill="#FAE9E7" cx="88.8" cy="68.6" r="10.7"/>
		</g>
		<g clip-path="url(#SVGID_2_)">
			<path fill="#2D3444" d="M135.8,73.8c-0.5,0-0.9-0.4-0.9-0.9s0.4-0.9,0.9-0.9c0.7,0,1.2-0.5,1.2-1.2s-0.5-1.2-1.2-1.2
				c-0.5,0-0.9-0.4-0.9-0.9s0.4-0.9,0.9-0.9c1.7,0,3.1,1.4,3.1,3.1S137.5,73.8,135.8,73.8z"/>
		</g>
		<g clip-path="url(#SVGID_2_)">
			<circle fill="#2D3444" cx="118.7" cy="68.6" r="2.1"/>
		</g>
		<g clip-path="url(#SVGID_2_)">
			<circle fill="#2D3444" cx="88.9" cy="68.6" r="2.1"/>
		</g>
		<g clip-path="url(#SVGID_2_)">
			<path fill="#2D3444" d="M137.9,63.6h-4.3c-0.7,0-1.2-0.5-1.4-1.1L128.1,39c-0.1-0.4,0.1-0.9,0.4-1.2c4.6-4.8,6.1-10,6.1-10.1
				c0.2-0.6,0.6-0.9,1.2-1c0.6-0.1,1.1,0.2,1.4,0.8c0.2,0.4,4.4,8.9,4.4,19.8s-2.2,15.4-2.3,15.5C138.9,63.3,138.5,63.6,137.9,63.6z
				 M134.8,60.8h2.2c0.6-1.6,1.7-5.9,1.7-13.5c0-6.5-1.6-12.2-2.9-15.5c-1,2-2.5,4.7-4.9,7.4L134.8,60.8z"/>
		</g>
		<g clip-path="url(#SVGID_2_)">
			<path fill="#2D3444" d="M105.9,110h-4.3c-0.5,0-0.9-0.4-0.9-0.9s0.4-0.9,0.9-0.9h4.3c0.5,0,0.9,0.4,0.9,0.9S106.5,110,105.9,110z
				"/>
		</g>
		<g clip-path="url(#SVGID_2_)">
			<path fill="#2D3444" d="M108.1,119c-1.5,0-3-0.4-4.3-1.1c-1.3,0.7-2.7,1.1-4.3,1.1c-5.3,0-8.7-5.2-9.5-6.8
				C74.5,104,71.2,85.5,70.6,80.5c-0.4-0.1-0.8-0.1-1.2-0.2c-4.4-1.1-7.4-5.1-7.4-9.6c0-5.5,4.4-9.9,9.9-9.9c0.8,0,1.4,0.6,1.4,1.4
				s-0.6,1.4-1.4,1.4c-3.9,0-7.2,3.2-7.2,7.2c0,3.3,2.2,6.1,5.4,6.9c0.6,0.1,1.2,0.2,1.8,0.2c0.7,0,1.3,0.6,1.4,1.3
				c0,0.2,1.9,22.4,18.4,30.9c0.3,0.1,0.5,0.3,0.6,0.6c0,0.1,2.9,5.6,7.3,5.6c1.3,0,2.5-0.4,3.4-1.1c0.5-0.4,1.2-0.4,1.7,0
				c0.9,0.7,2.1,1.1,3.4,1.1c4.4,0,7.3-5.6,7.3-5.6c0.1-0.2,0.3-0.5,0.6-0.6c16.3-9,18-30.7,18-30.9c0.1-0.7,0.7-1.3,1.4-1.3
				c0.6,0,1.2-0.1,1.8-0.2c3.2-0.8,5.4-3.7,5.4-6.9c0-3.9-3.2-7.2-7.2-7.2c-0.8,0-1.4-0.6-1.4-1.4s0.6-1.4,1.4-1.4
				c5.5,0,9.9,4.4,9.9,9.9c0,4.5-3.1,8.5-7.4,9.6c-0.4,0.1-0.8,0.2-1.2,0.2c-0.6,4.9-3.8,23-19,31.7
				C116.8,113.7,113.4,119,108.1,119z"/>
		</g>
		<g clip-path="url(#SVGID_2_)">
			<path fill="#2D3444" d="M135.8,80.6c-0.8,0-1.4-0.6-1.4-1.4s0.6-1.4,1.4-1.4c3.9,0,7.2-3.2,7.2-7.2c0-3.9-3.2-7.2-7.2-7.2
				c-0.8,0-1.4-0.6-1.4-1.4s0.6-1.4,1.4-1.4c5.5,0,9.9,4.4,9.9,9.9C145.7,76.2,141.3,80.6,135.8,80.6z"/>
		</g>
		<g clip-path="url(#SVGID_2_)">
			<path fill="#2D3444" d="M122.9,122.4c-0.8,0-1.4-0.6-1.4-1.4v-13.9c0-0.8,0.6-1.4,1.4-1.4s1.4,0.6,1.4,1.4V121
				C124.3,121.8,123.6,122.4,122.9,122.4z"/>
		</g>
		<g clip-path="url(#SVGID_2_)">
			<g>
				<g>
					<g>
						<path fill="#00A15A" d="M102.8,137.9c8.9,0,8.9-13.8,0-13.8C94,124,94,137.9,102.8,137.9L102.8,137.9z"/>
					</g>
				</g>
			</g>
			<g>
				<g>
					<path fill="#00A15A" d="M85.3,126.4c-0.2,0.1-0.4,0.1-0.7,0.2c1.3,0.2,2.7,0.3,4,0.5c-0.2-0.1-0.4-0.2-0.7-0.3
						c0.6,0.6,1.2,1.2,1.9,1.9c-0.1-0.2-0.3-0.4-0.4-0.6c0.2,0.9,0.5,1.7,0.7,2.6c0.1-0.3,0.2-0.5,0.2-0.8c-2.5,1-5.1,2.1-7.6,3.1
						c2.9,1.8,5.8,2.7,9,3.9c-1-0.8-2.1-1.6-3.1-2.4c0.1,0.1,0.1,0.2,0.2,0.3c-0.2-1.3-0.3-2.7-0.5-4c0,0.1-0.1,0.2-0.1,0.3
						c0.8-1,1.6-2.1,2.4-3.1c-3,2.2-6.4,4.4-9.7,6c1.7,0,3.5,0,5.2,0c1.1,0.5-1.2-1.3-0.5-0.3c-0.6-0.9-0.9-1.9-1.1-3
						c-0.3-1.4-0.4-3.8,0.7-4.7c-2.1,0.3-4.2,0.5-6.3,0.8c2.7,1.4,5.3,2.9,8.1,4.2c1.8,0.9,3.8,1.3,5,2.9c3.6,4.6,11.7-1.6,8.1-6.3
						c-1.6-2-3-2.9-5.3-3.7c-3.9-1.4-7.2,2.8-6.4,6.4c0,0-0.1-0.1-0.1-0.1c0.2-0.9,0.5-1.7,0.7-2.6c-0.1,0.2-0.2,0.5-0.3,0.7
						c1-0.8,2.1-1.6,3.1-2.4c-0.2,0.1-0.5,0.2-0.7,0.3c-6.2,2.3-3.5,12.3,2.8,10c3.8-1.4,5.5-4.6,4.6-8.6c-2.1,2.1-4.2,4.2-6.4,6.4
						c0.5,0.2,1,0.3,1.5,0.5c-0.8-0.4-1.5-0.9-2.3-1.3c0-0.1,0-0.1,0-0.2c2.7-2.1,5.4-4.2,8.1-6.3c-1.7-2.1-3.7-2.9-6.1-4
						c-3.1-1.4-6.1-3.1-9.1-4.7c-2.2-1.2-4.4-0.7-6.3,0.8c-4.2,3.4-4.5,10.4-3.2,15.3c1.3,5,5.2,11.2,10.9,9.2
						c2.6-0.9,4.9-2.8,7.2-4.3c2.2-1.4,4.8-2.5,5.6-5.2c1.9-6.5-6.5-7.2-10.3-9.6c-3.1-2-6.5,0.1-7.6,3.1c-2.1,5.3,1.9,10.7,7.7,9.3
						C94.5,134.7,91.7,124.7,85.3,126.4L85.3,126.4z"/>
				</g>
			</g>
			<g>
				<g>
					<path fill="#00A15A" d="M113.4,134.7c3.7-2.4,8-6.1,12.4-6.8c-1.3-0.2-2.7-0.3-4-0.5c1.2,0.6,1.6,2.4,1.4,3.7
						c-0.4,2.3-0.7,1.7-2.5,0.7c-3.8-2-6.6-4.7-10.9-6.1c-6.3-2.1-9.1,7.9-2.8,10c5.7,1.9,9.3,7.2,15.7,7.3
						c6.6,0.1,10.6-6,10.9-12.1c0.2-5.3-3.6-13.6-9.9-13.1c-5.6,0.4-11,5-15.6,7.9C102.6,129.4,107.7,138.3,113.4,134.7L113.4,134.7
						z"/>
				</g>
			</g>
			<g>
				<g>
					<path fill="#00A15A" d="M116.9,134.1c2.1,1.1,4.5,1.8,6.8,1.6c1.4-0.1,2.6-0.5,3.7-1.5c0.9-0.9,1.6-2.4,1.5-3.7
						c-0.1-2.6-2.3-5.5-5.2-5.2c-0.6,0.1-1.2,0.1-1.8,0c0.5,0.1,0.9,0.1,1.4,0.2c-0.6-0.1-1.1-0.2-1.7-0.5c0.4,0.2,0.8,0.3,1.2,0.5
						c-0.3-0.1-0.5-0.2-0.8-0.4c-2.4-1.3-5.7-0.7-7.1,1.9C113.7,129.5,114.3,132.8,116.9,134.1L116.9,134.1z"/>
				</g>
			</g>
		</g>
		<g clip-path="url(#SVGID_2_)">
			<path fill="#4FBD8D" d="M88.6,135.6c-1,0-1.9-0.7-2.2-1.7c-0.3-1.2,0.4-2.5,1.6-2.8l0.3-0.1l-0.2-0.1c-1.2-0.3-2-1.5-1.7-2.8
				s1.5-2,2.8-1.7l9.2,2.2c1,0.2,1.8,1.2,1.8,2.2s-0.7,2-1.7,2.3l-9.2,2.4C88.9,135.6,88.7,135.6,88.6,135.6z"/>
		</g>
		<g clip-path="url(#SVGID_2_)">
			<path fill="#4FBD8D" d="M103.3,136.4c-0.7,0-1.4-0.5-1.7-1.2c-0.4-1,0.1-2,1.1-2.4c0,0,0.1-0.1,0.2-0.3c0.2-0.5,0.2-1.2,0.1-1.4
				c-0.6-0.8-0.4-1.9,0.4-2.5c0.8-0.6,2-0.5,2.6,0.3c0.9,1.1,0.9,3,0.6,4.3c-0.4,1.5-1.3,2.6-2.6,3
				C103.8,136.3,103.6,136.4,103.3,136.4z"/>
		</g>
		<g clip-path="url(#SVGID_2_)">
			<path fill="#2D3444" d="M101,135.2c-0.9,0-1.8-0.4-2.3-1.1c-0.3-0.4-0.2-1,0.2-1.3c0.4-0.3,1-0.2,1.3,0.2c0.4,0.5,1.3,0.5,2-0.1
				s1-1.5,0.5-2c-0.3-0.4-0.2-1,0.2-1.3c0.4-0.3,1-0.2,1.3,0.2c1,1.3,0.7,3.4-0.9,4.6C102.6,134.9,101.8,135.2,101,135.2z"/>
		</g>
		<g clip-path="url(#SVGID_2_)">
			<path fill="#4FBD8D" d="M119.4,135.6c-0.2,0-0.4,0-0.6-0.1l-9.2-2.4c-1-0.3-1.7-1.2-1.7-2.3s0.7-2,1.8-2.2l9.2-2.2
				c1.2-0.3,2.5,0.5,2.8,1.7s-0.5,2.5-1.7,2.8l-0.2,0.1l0.3,0.1c1.2,0.3,2,1.6,1.6,2.8C121.3,134.9,120.4,135.6,119.4,135.6z"/>
		</g>
		<g clip-path="url(#SVGID_2_)">
			<g>
				<path fill="#2D3444" d="M84.5,142.3h-0.3c-4.4,0-7.9-5.5-7.9-12.5s3.5-12.5,7.9-12.5h0.4l15.3,10.5l-1.6,2.3l-14.5-9.9
					c-2.4,0.4-4.8,4.2-4.8,9.7c0,5.6,2.5,9.4,4.9,9.7l15.4-7.9l1.3,2.5L84.5,142.3z"/>
			</g>
			<g>
				<path fill="#2D3444" d="M123.4,142.3H123l-16-8.3l1.3-2.5l15.4,7.9c2.4-0.3,4.9-4.1,4.9-9.7c0-5.5-2.4-9.3-4.8-9.7l-14.5,9.9
					l-1.6-2.3l15.3-10.5h0.4c4.4,0,7.9,5.5,7.9,12.5S127.8,142.3,123.4,142.3z"/>
			</g>
			<g>
				<path fill="#2D3444" d="M103.7,136.3c-5.8,0-6.6-3.7-6.6-5.8s0.9-5.8,6.6-5.8c5.8,0,6.6,3.7,6.6,5.8S109.5,136.3,103.7,136.3z
					 M103.7,127.4c-3.4,0-3.9,1.5-3.9,3.1c0,1.6,0.5,3.1,3.9,3.1c3.4,0,3.9-1.5,3.9-3.1C107.6,128.9,107.1,127.4,103.7,127.4z"/>
			</g>
		</g>
		<g clip-path="url(#SVGID_2_)">
			<path fill="none" stroke="#221F1F" stroke-width="1.8408" stroke-linecap="round" stroke-miterlimit="10" d="M116.1,130.8"/>
		</g>
		<g clip-path="url(#SVGID_2_)">
			<path fill="none" stroke="#221F1F" stroke-width="1.8408" stroke-linecap="round" stroke-miterlimit="10" d="M109.3,130.8"/>
		</g>
		<g clip-path="url(#SVGID_2_)">
			<path fill="#2D3444" d="M89.3,134.2c-0.4,0-0.8-0.3-0.9-0.7c-0.1-0.5,0.2-1,0.7-1.1l5.7-1.5l-5.6-1.3c-0.5-0.1-0.8-0.6-0.7-1.1
				c0.1-0.5,0.6-0.8,1.1-0.7l9.2,2.2c0.4,0.1,0.7,0.5,0.7,0.9c0,0.4-0.3,0.8-0.7,0.9l-9.2,2.4C89.4,134.2,89.4,134.2,89.3,134.2z"/>
		</g>
		<g clip-path="url(#SVGID_2_)">
			<path fill="#2D3444" d="M118.3,134.2c-0.1,0-0.2,0-0.2,0l-9.2-2.4c-0.4-0.1-0.7-0.5-0.7-0.9c0-0.4,0.3-0.8,0.7-0.9l9.2-2.2
				c0.5-0.1,1,0.2,1.1,0.7c0.1,0.5-0.2,1-0.7,1.1l-5.6,1.3l5.7,1.5c0.5,0.1,0.8,0.6,0.7,1.1C119.1,133.9,118.7,134.2,118.3,134.2z"
				/>
		</g>
		<g clip-path="url(#SVGID_2_)">
			<path fill="#FFFFFF" d="M118.7,94.2c-3.1,2.3-10.9,4.3-14.9,4.3c-4.1,0-11.8-1.9-14.9-4.3c0,0,6.4,10.3,14.7,10.3
				S118.7,94.2,118.7,94.2z"/>
			<path fill="#2D3444" d="M103.6,105.8c-8.9,0-15.6-10.5-15.9-11c-0.4-0.6-0.3-1.3,0.2-1.8c0.5-0.4,1.2-0.5,1.8-0.1
				c2.8,2.1,10.2,4,14.1,4c3.8,0,11.4-1.9,14.1-4c0.5-0.4,1.3-0.4,1.8,0.1c0.5,0.5,0.6,1.2,0.2,1.8
				C119.6,95.4,112.5,105.8,103.6,105.8z M93.7,97.9c2.5,2.5,6,5.2,9.9,5.2c3.8,0,7.4-2.6,10-5c-3.4,1.1-7.2,1.8-9.8,1.8
				C101.1,99.8,97.2,99.1,93.7,97.9z"/>
		</g>
		<g clip-path="url(#SVGID_2_)">
			<path fill="#2D3444" d="M108.1,70.4c-1,0-1.8-0.8-1.8-1.8v-4.3c0-1.3-1.1-2.4-2.4-2.4s-2.4,1.1-2.4,2.4v4.3c0,1-0.8,1.8-1.8,1.8
				s-1.8-0.8-1.8-1.8v-4.3c0-3.4,2.7-6.1,6.1-6.1s6.1,2.7,6.1,6.1v4.3C110,69.6,109.1,70.4,108.1,70.4z"/>
		</g>
		<g clip-path="url(#SVGID_2_)">
			<path fill="#2D3444" d="M88.9,81.1c-6.9,0-12.5-5.6-12.5-12.5c0-6.9,5.6-12.5,12.5-12.5s12.5,5.6,12.5,12.5
				C101.4,75.5,95.8,81.1,88.9,81.1z M88.9,59.7c-4.9,0-8.8,4-8.8,8.8s4,8.8,8.8,8.8s8.8-4,8.8-8.8S93.8,59.7,88.9,59.7z"/>
		</g>
		<g clip-path="url(#SVGID_2_)">
			<path fill="#2D3444" d="M84.2,65.2c-0.2,0-0.4-0.1-0.6-0.2c-0.4-0.3-0.4-0.9-0.1-1.3c1.4-1.5,3.4-2.4,5.4-2.4
				c2.1,0,4.1,0.9,5.4,2.4c0.3,0.4,0.3,1-0.1,1.3s-1,0.3-1.3-0.1c-1-1.2-2.5-1.8-4.1-1.8c-1.6,0-3,0.7-4.1,1.8
				C84.7,65.1,84.4,65.2,84.2,65.2z"/>
		</g>
		<g clip-path="url(#SVGID_2_)">
			<path fill="#2D3444" d="M113.8,65.2c-0.2,0-0.4-0.1-0.6-0.2c-0.4-0.3-0.4-0.9-0.1-1.3c1.4-1.5,3.4-2.4,5.4-2.4
				c2.1,0,4.1,0.9,5.4,2.4c0.3,0.4,0.3,1-0.1,1.3c-0.4,0.3-1,0.3-1.3-0.1c-1-1.2-2.5-1.8-4.1-1.8c-1.6,0-3,0.7-4.1,1.8
				C114.3,65.1,114,65.2,113.8,65.2z"/>
		</g>
		<g clip-path="url(#SVGID_2_)">
			<path fill="#2D3444" d="M118.8,81.1c-6.9,0-12.5-5.6-12.5-12.5c0-6.9,5.6-12.5,12.5-12.5s12.5,5.6,12.5,12.5
				C131.3,75.5,125.7,81.1,118.8,81.1z M118.8,59.7c-4.9,0-8.8,4-8.8,8.8s4,8.8,8.8,8.8s8.8-4,8.8-8.8S123.6,59.7,118.8,59.7z"/>
		</g>
		<g clip-path="url(#SVGID_2_)">
			<path fill="#2D3444" d="M137.7,64H127c-1,0-1.8-0.8-1.8-1.8s0.8-1.8,1.8-1.8h10.7c1,0,1.8,0.8,1.8,1.8S138.7,64,137.7,64z"/>
		</g>
		<g clip-path="url(#SVGID_2_)">
			<path fill="#2D3444" d="M103.8,91.3c-4.6,0-7.2-2.4-7.3-2.5c-0.3-0.3-0.4-0.6-0.4-1v-2.1c0-0.8,0.6-1.4,1.4-1.4s1.4,0.6,1.4,1.4
				v1.5c0.8,0.5,2.5,1.4,5,1.4c2.5,0,4.3-0.9,5-1.4v-1.5c0-0.8,0.6-1.4,1.4-1.4s1.4,0.6,1.4,1.4v2.1c0,0.4-0.2,0.7-0.4,1
				C111,88.9,108.4,91.3,103.8,91.3z"/>
		</g>
		<g clip-path="url(#SVGID_2_)">
			<path fill="none" stroke="#006C85" stroke-width="0.6903" stroke-miterlimit="10" d="M110.8,130.3"/>
		</g>
		<g clip-path="url(#SVGID_2_)">
			<g>
				<path fill="#D1DEE5" d="M81,40.8c14.5,3.1,29.2,2.9,43.1-2.7c4.1-1.6,2.3-8.3-1.8-6.7c-12.7,5.1-26.1,5.5-39.4,2.7
					C78.5,33.3,76.7,39.9,81,40.8L81,40.8z"/>
			</g>
		</g>
		<g clip-path="url(#SVGID_2_)">
			<path fill="#CBD9E1" d="M76.8,31.8c-1.3,0-2.3-1-2.3-2.3c0-0.8,0.4-1.4,1-1.9c0.1,0,0.1-0.1,0.2-0.2C87,16.8,102,13.3,116.8,17.9
				c1.2,0.4,1.9,1.7,1.5,2.9c-0.4,1.2-1.7,1.9-2.9,1.5c-18-5.6-30.7,2.9-36.6,8.4C78.3,31.3,77.8,31.8,76.8,31.8z"/>
		</g>
		<g clip-path="url(#SVGID_2_)">
			<path fill="#2D3444" d="M74,63.6h-4.3c-0.6,0-1.1-0.4-1.3-1c-1.9-5.9-0.7-14.3-0.2-16.9c-1.1-1-3.3-3.3-4.1-6.6
				c-0.1-0.4,0-0.9,0.3-1.2c0.3-0.3,0.7-0.5,1.1-0.5c0,0,0,0,0,0c3.6,0,5.1-3.3,5.1-3.4c4.8-12.5,17.2-20,33.3-20
				c8.7,0,15.1,3.1,17.1,4.2c0.2,0.1,0.4,0.2,0.5,0.2c0,0,0.1,0,0.1,0.1c1.7,1,3.6,1.5,5.5,1.5c3.4,0,5.9-1.4,5.9-1.5
				c0.4-0.3,1-0.3,1.4,0c0.4,0.3,0.7,0.8,0.7,1.3c0,0.3-0.6,7.8-4.5,13.5c-6.3,9.3-18,11.2-26.7,11.3l-0.1,0
				c-10.6,0-20.7-2.7-24.4-3.9l-4,21.9C75.2,63.1,74.6,63.6,74,63.6z M70.7,60.8h2.1l4.1-22.3c0.1-0.4,0.3-0.7,0.7-0.9
				c0.3-0.2,0.8-0.2,1.1-0.1c0.1,0,12.4,4.2,25,4.2h0.1c8,0,18.8-1.8,24.5-10.1c2.3-3.3,3.3-7.3,3.7-9.8c-1.3,0.4-3,0.8-4.9,0.8
				c-2.4,0-4.7-0.6-6.8-1.8c-0.1-0.1-0.3-0.1-0.5-0.2c-1.9-1-7.9-3.9-15.9-3.9c-14.9,0-26.4,6.8-30.7,18.3c-0.1,0.2-1.7,4-5.8,5
				c1.2,2.6,3.2,4.1,3.2,4.1c0.4,0.3,0.6,0.9,0.5,1.4C71,45.5,69.2,54.5,70.7,60.8z"/>
		</g>
		<g clip-path="url(#SVGID_2_)">
			<circle fill="none" cx="103.5" cy="89.6" r="85.6"/>
		</g>
	</g>
	<g>
		<path fill="#2D3444" d="M84.1,119.6c-0.8,0-1.4-0.6-1.4-1.4v-11.4c0-0.8,0.6-1.4,1.4-1.4s1.4,0.6,1.4,1.4v11.4
			C85.5,119,84.8,119.6,84.1,119.6z"/>
	</g>
	<g>
		<g>
			<path fill="#FBCBBD" d="M12.3,178.6c0-2.1,0.3-4.5,0.1-6.4c0-0.1,0.1-0.3,0.1-0.4c0.4-1.1-0.3-0.5-1.9,1.9c0.4,0,1.1-0.3,1.5-0.4
				c1.7-0.6,2.8-1.3,4.1-2.4c2.1-1.8,1.9-5.5,0-7.3c-2.1-2.1-5.2-1.8-7.3,0c0.5-0.5-1,0.2-1,0.2c-0.8,0.3-1.7,0.6-2.5,1
				c-1.6,1-2.4,2.5-2.9,4.3c-0.9,3.1-0.6,6.4-0.6,9.6C1.9,185.3,12.3,185.3,12.3,178.6L12.3,178.6z"/>
		</g>
	</g>
	<g>
		<path fill="#2D3444" d="M7.2,182.1c-1.2,0-2.2-0.3-2.3-0.3c-0.5-0.1-0.9-0.6-1-1.1c-0.2-1-0.1-1.9-0.1-3c0-1.4,0.1-2.9-0.2-5
			c-0.5-4.1,1.6-5.9,3.4-7.5l0.3-0.2c2-1.8,5.1-4.2,5.3-4.3c0.3-0.3,0.8-0.4,1.2-0.2c0.4,0.1,0.8,0.4,0.9,0.9l2.3,6.3
			c0.2,0.5,0.1,1-0.2,1.4l-4.6,5.4c0.3,1.6,0.6,4.1-0.1,5.5C11.1,181.2,9.4,182.1,7.2,182.1z M6.5,179.3c0.2,0,0.4,0,0.7,0
			c1.2,0,2-0.3,2.3-1c0.2-0.5,0.1-2.5-0.3-4.2c-0.1-0.4,0-0.9,0.3-1.2l4.5-5.3l-1.4-3.7c-1.1,0.9-2.5,2-3.6,3l-0.3,0.2
			c-1.7,1.5-2.8,2.5-2.5,5.2c0.3,2.3,0.3,4,0.2,5.4C6.5,178.4,6.5,178.9,6.5,179.3z"/>
	</g>
	<g>
		<path fill="#C8813B" d="M73.5,177.7c0.2,1.5-0.8,2.9-2.3,3.2l-57,9.4c-1.5,0.2-2.9-0.8-3.2-2.3l-11-67c-0.2-1.5,0.8-2.9,2.3-3.2
			l57-9.4c1.5-0.2,2.9,0.8,3.2,2.3L73.5,177.7z"/>
	</g>
	<g>
		<polygon fill="#FFFFFF" points="64.7,170.7 21,178.2 10.7,116.7 54.6,109.3 		"/>
	</g>
	<g>
		<path fill="#2D3444" d="M16.9,188.8c-0.9,0-1.7-0.3-2.4-0.8c-0.9-0.6-1.5-1.6-1.7-2.7L2,119.7c-0.2-1.1,0.1-2.2,0.7-3.1
			c0.6-0.9,1.6-1.5,2.7-1.7l12-2c0.8-0.1,1.5,0.4,1.6,1.1s-0.4,1.5-1.1,1.6l-12,2c-0.8,0.1-1.3,0.8-1.1,1.6l10.8,65.7
			c0.1,0.8,0.8,1.3,1.6,1.1l53.8-8.8c0.4-0.1,0.7-0.3,0.9-0.6s0.3-0.7,0.2-1L61.2,110c-0.1-0.4-0.3-0.7-0.6-0.9
			c-0.3-0.2-0.7-0.3-1-0.2l-11.5,1.9c-0.8,0.1-1.5-0.4-1.6-1.1c-0.1-0.8,0.4-1.5,1.1-1.6l11.5-1.9c1.1-0.2,2.2,0.1,3.1,0.7
			c0.9,0.6,1.5,1.6,1.7,2.7l10.8,65.7c0.2,1.1-0.1,2.2-0.7,3.1c-0.6,0.9-1.6,1.5-2.7,1.7l-53.8,8.8
			C17.3,188.8,17.1,188.8,16.9,188.8z"/>
	</g>
	<g>
		<path fill="#BED0DA" d="M38.3,106.9c-0.1-3.8-5-6.9-7.6-6.1c-3.7,0.6-6.2,4.1-5.6,7.8c-2.1,0.9-6.7,2.2-8.6,5.4
			c-2.2,3.8-0.8,8.4-0.8,8.4l34.9-5.5l-0.2-1C47.6,103.9,38.3,106.9,38.3,106.9z"/>
		<path fill="#BED0DA" d="M15.7,123.3c-0.4,0-0.8-0.3-0.9-0.7c-0.1-0.2-1.4-5,0.9-9.1c1.7-3,5.4-4.4,7.8-5.3
			c0.2-0.1,0.4-0.1,0.5-0.2c-0.1-1.8,0.4-3.5,1.4-5c1.2-1.7,2.9-2.8,4.9-3.1c0.4-0.1,0.7-0.2,1.1-0.2c3,0,6.7,2.7,7.4,6.1
			c0.5-0.1,1.1-0.1,1.7-0.1c3,0,8.5,1.3,10.5,10l0.2,1c0.1,0.2,0,0.5-0.1,0.7s-0.4,0.4-0.6,0.4l-34.9,5.5
			C15.8,123.3,15.8,123.3,15.7,123.3z M31.6,101.5c-0.2,0-0.5,0-0.7,0.1c0,0-0.1,0-0.1,0c-1.5,0.3-2.9,1.1-3.8,2.4
			c-0.9,1.3-1.3,2.8-1,4.4c0.1,0.4-0.2,0.8-0.5,1c-0.4,0.2-0.8,0.3-1.2,0.5c-2.2,0.8-5.5,2.1-6.9,4.5c-1.4,2.5-1.2,5.5-0.9,6.9
			l33.1-5.2l0-0.1c-1.6-7.1-5.6-8.6-8.7-8.6c-1.2,0-2,0.2-2.3,0.3c-0.1,0-0.2,0-0.3,0c-0.5,0-0.9-0.4-0.9-0.9
			C37.3,104,33.8,101.5,31.6,101.5z"/>
	</g>
	<g>
		<path fill="#2D3444" d="M17.2,121.9c-0.3,0-0.6-0.1-0.8-0.3c-0.3-0.2-0.5-0.5-0.6-0.9l-0.2-1.5c-0.4-2.7,0.2-5.5,1.8-7.7
			c1.5-2.1,3.7-3.6,6.2-4.1c0-1.7,0.5-3.3,1.5-4.7c1.3-1.8,3.1-2.9,5.3-3.3c0.4-0.1,0.9-0.1,1.3-0.1c3.5,0,6.6,2.3,7.7,5.5
			c0.4,0,0.8-0.1,1.2-0.1c5,0,9.4,3.7,10.3,8.7l0.2,1.5c0.1,0.8-0.4,1.5-1.1,1.6l-32.6,5.4C17.4,121.9,17.3,121.9,17.2,121.9z
			 M26.5,108.3C26.5,108.3,26.5,108.3,26.5,108.3c0.1,0.4,0,0.8-0.2,1.1s-0.5,0.5-0.9,0.6l-0.7,0.1c-2,0.3-3.8,1.4-5,3.1
			c-1.2,1.7-1.7,3.7-1.3,5.7l0,0.1l29.8-4.9l0-0.1c-0.6-3.6-3.8-6.4-7.5-6.4c-0.4,0-0.8,0-1.2,0.1l-0.7,0.1
			c-0.7,0.1-1.5-0.4-1.6-1.1c0,0,0,0,0-0.1c-0.4-2.6-2.7-4.5-5.3-4.5c-0.3,0-0.6,0-0.9,0.1c-1.4,0.2-2.7,1-3.5,2.2
			C26.6,105.5,26.3,106.9,26.5,108.3z"/>
	</g>
	<g>
		<circle fill="#FFFFFF" cx="31.7" cy="106.9" r="2.1"/>
		<path fill="#2D3444" d="M31.7,109.9c-1.5,0-2.7-1.1-3-2.5c-0.3-1.6,0.8-3.2,2.5-3.5c1.7-0.3,3.2,0.9,3.5,2.5
			c0.1,0.8-0.1,1.6-0.5,2.2c-0.5,0.7-1.2,1.1-2,1.2C32,109.9,31.9,109.9,31.7,109.9z M31.7,105.7c-0.1,0-0.1,0-0.2,0
			c-0.6,0.1-1.1,0.7-1,1.3c0.1,0.6,0.7,1.1,1.3,1c0.6-0.1,1.1-0.7,1-1.3C32.8,106.2,32.3,105.7,31.7,105.7z"/>
	</g>
	<g>
		<g>
			<path fill="#FBCBBD" d="M34.4,188c0.1-3.9,1.2-7.6,1.3-11.5c0.1-6.7-10.2-6.7-10.4,0c-0.1,3.9-1.2,7.6-1.3,11.5
				C24,194.7,34.3,194.7,34.4,188L34.4,188z"/>
		</g>
	</g>
	<g>
		<g>
			<path fill="#FBCBBD" d="M41.3,186.5c0.3-3.4,0.5-6.8,0.4-10.2c-0.1-6.7-10.4-6.7-10.4,0c0,3.4-0.2,6.8-0.4,10.2
				c-0.2,2.8,2.5,5.2,5.2,5.2C39.1,191.7,41.1,189.3,41.3,186.5L41.3,186.5z"/>
		</g>
	</g>
	<g>
		<g>
			<path fill="#FBCBBD" d="M47.7,183.5c-0.2-0.8-0.5-1.7-0.7-2.5c-0.1-0.3-0.2-0.7-0.2-1c0-0.2-0.1-0.9,0,0c0.1,1,0-0.3,0-0.4
				c-0.2-2.7-2.2-5.3-5.2-5.2c-2.6,0.1-5.4,2.3-5.2,5.2c0.2,2.3,0.8,4.4,1.3,6.7c0.7,2.6,3.7,4.5,6.4,3.6
				C46.8,189,48.4,186.3,47.7,183.5L47.7,183.5z"/>
		</g>
	</g>
	<g>
		<path fill="#2D3444" d="M36.2,189.7C36.2,189.7,36.1,189.7,36.2,189.7c-2.6,0-4.4-1.7-4.4-3.9l0.7-13.1c0-2.4,1.7-4.1,3.9-4.1
			l0.7,0c1.2,0,2.2,0.5,2.9,1.4c0.6,0.8,1,1.8,1,2.9l0.1,13.1C41.1,188.3,38.6,189.7,36.2,189.7z M36.4,171.4
			c-1.1,0-1.2,1.1-1.2,1.4l-0.7,13.1c0,0.9,1.3,1,1.6,1l0.1,1.4V187c1.1,0,2.2-0.5,2.2-1l-0.1-13.1c0-0.5-0.1-0.9-0.3-1.1
			c-0.2-0.2-0.5-0.4-0.8-0.4L36.4,171.4C36.4,171.4,36.4,171.4,36.4,171.4z"/>
	</g>
	<g>
		<path fill="#2D3444" d="M43.1,187.8c-2.2,0-4.1-1.5-4.4-3.6c0,0,0-0.1,0-0.1l-0.3-6.2c-0.1-1.1,0.1-2.2,0.7-3
			c0.6-0.9,1.6-1.5,2.8-1.7c0.2,0,0.4,0,0.6,0c2,0,3.6,1.5,3.9,3.7l1.3,6c0.3,2.4-1.4,4.5-3.9,4.9C43.5,187.8,43.3,187.8,43.1,187.8
			z M41.4,183.9c0.1,0.7,1,1.3,2,1.1c1-0.1,1.7-0.9,1.6-1.7l-1.3-6c-0.1-0.7-0.5-1.5-1.5-1.4c-0.4,0.1-0.8,0.2-1,0.5
			c-0.2,0.3-0.3,0.7-0.2,1.1c0,0,0,0.1,0,0.1L41.4,183.9z"/>
	</g>
	<g>
		<g>
			<path fill="#FBCBBD" d="M26.4,189.6c0.8-3.2,1.6-6.5,2.4-9.7c0.7-2.7-0.9-5.6-3.6-6.4c-2.7-0.7-5.7,0.9-6.4,3.6
				c-0.8,3.2-1.6,6.5-2.4,9.7c-0.7,2.7,0.9,5.6,3.6,6.4C22.6,193.9,25.7,192.3,26.4,189.6L26.4,189.6z"/>
		</g>
	</g>
	<g>
		<path fill="#2D3444" d="M22.2,191.2c-0.4,0-0.9,0-1.3-0.1c-1.2-0.2-2.1-0.7-2.8-1.4c-0.8-0.9-1.2-2-1-3.1l2.3-10.2
			c0.4-2.3,2.5-3.8,4.8-3.3l0.7,0.1c2.4,0.4,3.8,2.5,3.3,4.9l-1.4,10.2C26.4,190,24.6,191.2,22.2,191.2z M23.4,175.7
			c-0.9,0-1.2,0.8-1.3,1.2l-2.3,10.2c0,0.2,0,0.5,0.2,0.7c0.3,0.3,0.8,0.5,1.3,0.6c0.3,0,0.5,0.1,0.8,0.1c1,0,1.8-0.3,1.8-0.7
			l1.4-10.2c0.1-0.5,0.1-1.5-1.1-1.7l-0.7-0.1C23.6,175.7,23.5,175.7,23.4,175.7z"/>
	</g>
	<g>
		<path fill="#2D3444" d="M29.2,190.8c-0.2,0-0.5,0-0.7,0c-1.2-0.1-2.2-0.5-2.9-1.2c-0.9-0.8-1.3-1.9-1.2-3l1.8-13
			c0.2-2.3,2.1-4,4.5-3.7l0.7,0.1c1.2,0.1,2.2,0.7,2.9,1.6c0.6,0.8,0.9,1.9,0.8,3l-0.9,13C33.9,189.7,31.4,190.8,29.2,190.8z
			 M30.2,172.5c-1,0-1.2,0.9-1.3,1.3l-1.8,13c0,0.2,0.1,0.5,0.3,0.7c0.3,0.3,0.8,0.4,1.4,0.5c0.1,0,0.3,0,0.4,0
			c1.1,0,2.1-0.4,2.1-0.8l0.9-13c0-0.5,0-0.9-0.2-1.1c-0.2-0.3-0.5-0.4-0.9-0.5l-0.7-0.1C30.3,172.5,30.3,172.5,30.2,172.5z"/>
	</g>
	<g>
		<path fill="#2D3444" d="M38.3,162.2c-8.6,0-15.6-7-15.6-15.6s7-15.6,15.6-15.6c3.6,0,7.2,1.3,10,3.6l-1.8,2.1
			c-2.3-1.9-5.2-2.9-8.2-2.9c-7.1,0-12.9,5.8-12.9,12.9s5.8,12.9,12.9,12.9s12.9-5.8,12.9-12.9c0-2.5-0.7-4.9-2.1-7l2.3-1.5
			c1.6,2.5,2.5,5.5,2.5,8.5C54,155.2,46.9,162.2,38.3,162.2z"/>
	</g>
	<g>
		<polygon fill="#FFFFFF" points="37.9,156.2 29.6,147.9 36.1,141.4 37.3,142.5 45.8,132.3 52.8,138.2 		"/>
	</g>
	<g>
		<path fill="#00A15A" d="M50.9,134.6c0.1,1.1-0.3,2.1-1.1,3.2l-0.1,0.2l-7.5,9.7c-1.6,2.1-3,3.7-4.1,4.8c-1.2,1.2-2,1.8-2.5,1.8
			c-0.5,0.1-1.2-0.1-2.1-0.6c-0.9-0.4-1.4-0.9-1.7-1.4c-0.2-0.4-0.5-1.4-0.9-2.8c-0.3-1.5-0.6-3-0.7-4.8c-0.1-0.9,0.2-1.8,0.9-2.7
			c0.7-0.9,1.5-1.4,2.5-1.5c0.9-0.1,1.5,0.7,1.9,2.3c0,0.2,0.1,0.3,0.1,0.4c0.3,1.2,0.5,2.1,0.8,2.6c0.2,0.5,0.5,0.7,0.9,0.7
			c0.1,0,0.4-0.2,0.7-0.5c0.3-0.3,0.7-0.8,1.2-1.3l7.8-9.4c0.7-0.8,1.2-1.4,1.8-1.8c0.5-0.4,1-0.7,1.4-0.7c0.3,0,0.5,0.1,0.7,0.3
			c0.2,0.2,0.3,0.6,0.3,1.1L50.9,134.6z"/>
	</g>
	<g>
		<path fill="#2D3444" d="M71.2,73.8c-1.7,0-3.1-1.4-3.1-3.1s1.4-3.1,3.1-3.1c0.5,0,0.9,0.4,0.9,0.9s-0.4,0.9-0.9,0.9
			c-0.7,0-1.2,0.5-1.2,1.2s0.5,1.2,1.2,1.2c0.5,0,0.9,0.4,0.9,0.9S71.7,73.8,71.2,73.8z"/>
	</g>
	<g>
		<rect x="127.8" y="60.3" fill="#2D3444" width="11" height="3.7"/>
	</g>
	<g>
		<rect x="69.3" y="60.3" fill="#2D3444" width="11" height="3.7"/>
	</g>
</g>
</svg>
