<?xml version="1.0" encoding="utf-8"?>
<!-- Generator: Adobe Illustrator 18.1.1, SVG Export Plug-In . SVG Version: 6.00 Build 0)  -->
<svg version="1.1" id="Layer_1" xmlns="http://www.w3.org/2000/svg" xmlns:xlink="http://www.w3.org/1999/xlink" x="0px" y="0px"
	 viewBox="0 0 29.5 28.5" enable-background="new 0 0 29.5 28.5" xml:space="preserve">
<g id="yOhufo_1_">
	<g>
		<path fill="#FFFFFF" d="M0.6,28.5c0-7.5,0-14.9,0-22.4c0-1.9,0-3.7,0-5.6c0-0.1,0-0.2,0-0.3c0,0,0-0.1,0-0.1C0.5,0,0.6,0,0.7,0
			c0.2-0.1,0.5,0,0.7,0c0.5,0,1,0,1.5,0c0.9,0,1.9,0,2.8,0c3.7,0,7.4,0,11.2,0c3.8,0,7.5,0,11.3,0c0.2,0,0.5,0,0.7,0
			c0.1,0,0.6-0.1,0.7,0c0.1,0.1,0,0.6,0,0.7c0,0.3,0,0.5,0,0.8c0,0.9,0,1.9,0,2.8c0,1.9,0,3.7,0,5.6c0,3.7,0,7.4,0,11
			c0,1.9,0,3.7,0,5.6c0,0.4,0,0.9,0,1.3c0,0.2,0.1,0.5,0,0.7c0,0,0,0.1,0,0.1c-0.1,0-0.2,0-0.2,0c-0.2,0-0.3,0-0.5,0
			c-0.9,0-1.9,0-2.8,0c-7.5,0-15.1,0-22.6,0C2.4,28.5,1.5,28.5,0.6,28.5C0.6,19,10.2,28.5,0.6,28.5z M28.1,14.5
			c0-2.6-0.8-5.2-2.3-7.4c-1.5-2.1-3.6-3.7-6-4.6c-2.5-0.9-5.3-1.1-8-0.4C9.3,2.8,7,4.3,5.4,6.2c-1.7,2-2.8,4.5-3,7.1
			C2.1,16,2.7,18.7,4.1,21c1.3,2.2,3.3,4,5.6,5.1c2.4,1.1,5.2,1.5,7.9,1c2.6-0.5,5-1.8,6.8-3.6c1.8-1.9,3.1-4.3,3.5-6.8
			C28,15.9,28.1,15.2,28.1,14.5C28.1,7.5,28.1,21.6,28.1,14.5z"/>
		<path fill="#2D3444" d="M28.1,14.5c0,2.6-0.9,5.2-2.4,7.4c-1.5,2.1-3.7,3.7-6.2,4.6c-2.6,0.9-5.4,0.9-8,0.2
			C9,26,6.8,24.5,5.2,22.5c-1.7-2-2.6-4.5-2.8-7.1C2.2,12.7,2.8,10,4.2,7.7C5.6,5.6,7.6,3.8,10,2.8c2.5-1.1,5.3-1.3,7.9-0.8
			c2.6,0.5,4.9,1.8,6.7,3.7c1.8,1.9,3,4.3,3.3,6.8C28,13.2,28.1,13.9,28.1,14.5C28.1,21.6,28.1,7.5,28.1,14.5z M13.6,11.7
			c0,2,0,3.9,0,5.9c0,0.5,0,0.9,0,1.4c0,0.2,0,0.5,0,0.7c0,0.1,0,0.3,0,0.4c0,0,0,0.3,0,0.3c0.1,0.1,0.6,0,0.7,0c0.2,0,0.5,0,0.7,0
			c0.5,0,1,0,1.5,0c0-1.2,0-2.4,0-3.6c0-0.8-0.1-1.8,0.4-2.4c0.5-0.6,1.5-0.7,2.1-0.2c0.6,0.5,0.6,1.4,0.6,2.1c0,1.4,0,2.8,0,4.1
			c0.8,0,1.6,0,2.4,0c0.1,0,0.2,0,0.3,0c0,0,0.1,0,0.1,0c0.1,0,0.1,0,0.1-0.1c0.1-0.2,0-0.5,0-0.7c0-0.4,0-0.9,0-1.3
			c0-0.8,0-1.7,0-2.5c0-0.7,0-1.4-0.2-2c-0.3-1-1.1-1.9-2.1-2.2c-1.2-0.3-2.2,0.1-3.2,0.7c-0.1,0-0.1,0.1-0.2,0.1
			c-0.2,0-0.1,0-0.2-0.1c-0.1-0.1-0.2-0.3-0.4-0.4c-0.2-0.2-0.5-0.2-0.8-0.2C14.8,11.7,14.2,11.9,13.6,11.7
			C13.6,14.7,14.7,12.1,13.6,11.7z M9,20.4c0.7,0,1.5,0,2.2,0c0.1,0,0.4,0,0.5,0c0.2,0,0.1,0,0.1-0.1c0-0.1,0-0.2,0-0.3
			c0-0.4,0-0.7,0-1.1c0-1.5,0-3,0-4.5c0-0.7,0-1.5,0-2.2c0-0.1,0-0.2,0-0.3c0-0.1-0.1-0.1-0.2-0.1c-0.2,0-0.4,0-0.5,0
			c-0.4,0-0.7,0-1.1,0c-0.2,0-0.3,0-0.5,0c-0.1,0-0.2,0-0.3,0c-0.2,0-0.1,0-0.1,0.1c0,0.1,0,0.4,0,0.5c0,0.2,0,0.4,0,0.7
			c0,0.7,0,1.5,0,2.2C9,17.1,9,18.7,9,20.4C10.1,20.4,9,17.5,9,20.4z M10.7,10.9c0.5-0.6,1.2-1.1,1.3-1.8c0.1-0.7-0.4-1.2-1-1.4
			C10.5,7.5,9.7,7.6,9.2,8C8.8,8.5,8.7,9.2,9,9.8C9.3,10.4,10.1,10.7,10.7,10.9C11.2,10.3,9.4,10.5,10.7,10.9z"/>
		<path fill="#FFFFFF" d="M13.6,11.7c0.5,0.2,1.1,0.1,1.6,0c0.3,0,0.5,0,0.7,0.1c0.3,0.1,0.4,0.4,0.6,0.6c0.1,0.1,0,0.1,0.2,0
			c0.1,0,0.1-0.1,0.2-0.1c0.1-0.1,0.2-0.2,0.4-0.2c0.3-0.2,0.6-0.3,0.9-0.4c0.5-0.2,1-0.2,1.5-0.1c1.1,0.2,1.9,0.9,2.3,1.8
			c0.3,0.6,0.3,1.3,0.4,1.9c0,0.8,0,1.6,0,2.4c0,0.5,0,1,0,1.5c0,0.2,0,0.4,0,0.6c0,0.1,0,0.2,0,0.3c0,0.2,0,0.2-0.2,0.2
			c-0.9,0-1.8,0-2.7,0c0-1.2,0-2.4,0-3.6c0-0.7,0.1-1.8-0.4-2.4c-0.5-0.6-1.5-0.6-2.1-0.1c-0.6,0.5-0.6,1.4-0.6,2.1
			c0,1.4,0,2.7,0,4.1c-0.5,0-1,0-1.5,0c-0.2,0-0.5,0-0.7,0c-0.1,0-0.2,0-0.3,0c-0.1,0-0.4,0-0.4,0c-0.1-0.1,0-0.6,0-0.7
			c0-0.2,0-0.5,0-0.7c0-0.5,0-1,0-1.5C13.6,15.6,13.6,13.7,13.6,11.7C14.7,12.1,13.6,14.7,13.6,11.7z"/>
		<path fill="#FFFFFF" d="M9,20.4c0-1.5,0-3,0-4.5c0-0.8,0-1.5,0-2.3c0-0.4,0-0.7,0-1.1c0-0.2,0-0.4,0-0.5c0,0,0-0.2,0-0.2
			c0,0,0.3,0,0.4,0c0.7,0,1.4,0,2.2,0c0.1,0,0.2,0,0.2,0.1c0,0.1,0,0.2,0,0.3c0,0.2,0,0.4,0,0.5c0,0.4,0,0.8,0,1.1c0,1.5,0,3,0,4.4
			c0,0.4,0,0.8,0,1.3c0,0.2,0,0.4,0,0.7c0,0,0,0.2,0,0.2c0,0-0.3,0-0.3,0C10.7,20.4,9.8,20.4,9,20.4C9,17.5,10.1,20.4,9,20.4z"/>
		<path fill="#FFFFFF" d="M10.7,10.9c-0.6-0.2-1.3-0.4-1.7-0.9c-0.3-0.5-0.3-1.2,0-1.7c0.7-1,2.9-0.8,3,0.6
			C12.1,9.7,11.2,10.3,10.7,10.9C9.4,10.5,11.2,10.3,10.7,10.9z"/>
	</g>
</g>
</svg>
