<?xml version="1.0" encoding="utf-8"?>
<!-- Generator: Adobe Illustrator 18.1.1, SVG Export Plug-In . SVG Version: 6.00 Build 0)  -->
<svg version="1.1" id="Layer_1" xmlns="http://www.w3.org/2000/svg" xmlns:xlink="http://www.w3.org/1999/xlink" x="0px" y="0px"
	 viewBox="0 0 30.7 28.4" enable-background="new 0 0 30.7 28.4" xml:space="preserve">
<g id="OZCvgG_1_">
	<g>
		<path fill="#FFFFFF" d="M0,28.4C0,21,0,13.6,0,6.1c0-1.9,0-3.7,0-5.6c0-0.1,0-0.2,0-0.3c0,0,0-0.1,0-0.1C0,0,0,0,0.1,0
			C0.3,0,0.7,0,0.9,0c0.5,0,1,0,1.6,0c1,0,2,0,3,0c3.9,0,7.9,0,11.8,0c4,0,8,0,12,0c0.2,0,0.5,0,0.7,0C30,0,30.6,0,30.6,0
			s0,0.6,0,0.7c0,0.3,0,0.5,0,0.8c0,0.9,0,1.8,0,2.8c0,1.8,0,3.7,0,5.5c0,3.7,0,7.3,0,11c0,1.8,0,3.7,0,5.5c0,0.4,0,0.9,0,1.3
			c0,0.2,0.1,0.5,0,0.7c0,0,0,0.1,0,0.1c-0.1,0-0.2,0-0.2,0c-0.2,0-0.3,0-0.5,0c-1,0-2,0-3,0c-8,0-16,0-24,0C1.9,28.4,1,28.4,0,28.4
			C0,18.9,10.2,28.4,0,28.4z M15.1,27.1c2.8,0,5.7-0.8,8-2.3c2.3-1.5,4-3.6,4.9-6c1-2.5,1.1-5.3,0.3-7.8c-0.8-2.5-2.3-4.7-4.4-6.3
			C21.7,3,19,2,16.2,1.8C13.4,1.6,10.5,2.2,8,3.5C5.7,4.8,3.8,6.8,2.7,9.1c-1.2,2.4-1.5,5.2-1,7.8c0.5,2.5,1.9,4.8,3.9,6.6
			c2,1.8,4.6,3,7.4,3.4C13.6,27,14.3,27.1,15.1,27.1C22.6,27.1,7.5,27,15.1,27.1z"/>
		<path fill="#2D3444" d="M15.1,27.1c-2.8,0-5.6-0.8-7.9-2.4c-2.2-1.5-3.9-3.6-4.9-6c-1-2.5-1-5.3-0.3-7.8c0.8-2.5,2.3-4.7,4.4-6.3
			C8.6,3,11.2,2,14,1.8c2.8-0.2,5.7,0.4,8.2,1.8c2.3,1.3,4.2,3.3,5.4,5.6c1.2,2.4,1.5,5.2,1,7.8c-0.5,2.5-1.9,4.9-4,6.7
			c-2,1.8-4.6,3-7.4,3.4C16.5,27,15.8,27.1,15.1,27.1C7.5,27,22.6,27.1,15.1,27.1z M16.3,16.1c-0.1,0-0.2-0.1-0.4-0.1
			c-0.1,0-0.2,0-0.3-0.2c-0.1-0.2-0.2-0.5-0.3-0.7c-0.2-0.5-0.3-1-0.4-1.4c-0.2-1-0.5-2-0.7-3c-0.2-0.7-0.3-1.7-1-2.2
			c-0.6-0.4-1.3-0.1-1.9,0.2c-0.9,0.5-1.7,1.2-2.5,1.8c-0.2,0.2-0.4,0.3-0.6,0.5c-0.2,0.1-0.4,0.2-0.4,0.4c-0.1,0.3,0,0.6,0.3,0.7
			c0.4,0.1,0.6-0.2,0.9-0.2c0.3-0.1,0.5-0.1,0.7,0.1c0.4,0.3,0.5,0.9,0.6,1.3c0.3,0.9,0.7,1.9,1,2.8c0.3,1,0.6,2,1.1,2.9
			c0.3,0.6,0.7,1.2,1.4,1.5c0.7,0.2,1.4,0.1,1.9-0.2c0.8-0.4,1.5-1.1,2.2-1.7c0.7-0.7,1.5-1.3,2.1-2.1c1.2-1.5,2.1-3.3,2.7-5.1
			c0.2-0.7,0.3-1.4-0.2-2.1c-0.4-0.6-1-0.9-1.8-1C19.1,8,17.6,9,16.9,10.2c-0.2,0.3-0.3,0.7-0.4,1.1c0.8,0,2.1,0.1,1.9,1.1
			c-0.1,0.6-0.5,1.2-0.9,1.8C17.1,14.9,16.6,15.5,16.3,16.1C16,16.1,16.9,15,16.3,16.1z"/>
		<path fill="#FFFFFF" d="M16.3,16.1c0.4-0.6,0.8-1.2,1.2-1.9c0.3-0.6,0.7-1.2,0.9-1.8c0.3-1-1.1-1.2-1.9-1.1
			c0.3-1.5,1.5-2.7,3.1-3.1c1.5-0.3,3.1,0.3,3.3,1.8c0.1,0.8-0.4,1.7-0.7,2.5c-0.4,0.9-0.8,1.8-1.4,2.6c-1,1.7-2.5,3-4,4.2
			c-0.6,0.5-1.2,1-2.1,1.1c-0.7,0.1-1.3-0.2-1.7-0.6c-0.6-0.7-0.9-1.5-1.2-2.3c-0.4-1-0.7-2-1-3c-0.2-0.7-0.4-1.4-0.7-2.1
			c-0.2-0.5-0.5-0.8-1.1-0.7c-0.4,0.1-0.6,0.4-1,0.2c-0.3-0.1-0.4-0.5-0.3-0.7c0.1-0.2,0.2-0.2,0.4-0.4c0.2-0.2,0.4-0.3,0.6-0.5
			c0.4-0.3,0.8-0.6,1.2-0.9c0.4-0.3,0.8-0.6,1.3-0.9c0.3-0.2,0.7-0.4,1.1-0.4c0.7-0.1,1.2,0.5,1.4,1c0.4,0.9,0.6,2,0.8,2.9
			c0.2,1,0.4,2,0.8,2.9c0.1,0.2,0.2,0.4,0.3,0.7c0.1,0.2,0.1,0.2,0.3,0.2C16,16,16.1,16.1,16.3,16.1C16.9,15,16,16.1,16.3,16.1z"/>
	</g>
</g>
</svg>
